<svg width="12" height="12" viewBox="0 0 12 12" fill="none" xmlns="http://www.w3.org/2000/svg">
<path d="M5.95833 10.8333C6.59853 10.8333 7.23245 10.7072 7.82391 10.4622C8.41538 10.2173 8.95279 9.85816 9.40548 9.40548C9.85816 8.95279 10.2173 8.41538 10.4622 7.82391C10.7072 7.23245 10.8333 6.59853 10.8333 5.95833C10.8333 5.31814 10.7072 4.68421 10.4622 4.09275C10.2173 3.50129 9.85816 2.96387 9.40548 2.51119C8.95279 2.0585 8.41538 1.69941 7.82391 1.45442C7.23245 1.20943 6.59853 1.08333 5.95833 1.08333C4.6654 1.08333 3.42543 1.59695 2.51119 2.51119C1.59695 3.42543 1.08333 4.6654 1.08333 5.95833C1.08333 7.25126 1.59695 8.49124 2.51119 9.40548C3.42543 10.3197 4.6654 10.8333 5.95833 10.8333ZM11.9167 5.95833C11.9167 9.24896 9.24896 11.9167 5.95833 11.9167C2.66771 11.9167 0 9.24896 0 5.95833C0 2.66771 2.66771 0 5.95833 0C9.24896 0 11.9167 2.66771 11.9167 5.95833ZM4.61771 4.61825C4.26215 4.97381 4.0624 5.45604 4.0624 5.95887C4.0624 6.46171 4.26215 6.94394 4.61771 7.2995C4.97326 7.65506 5.4555 7.8548 5.95833 7.8548C6.46116 7.8548 6.9434 7.65506 7.29896 7.2995L7.68192 6.916L8.44783 7.68246L8.06487 8.06542C7.64824 8.48207 7.1174 8.76583 6.53949 8.88079C5.96159 8.99575 5.36257 8.93676 4.81819 8.71128C4.27381 8.4858 3.80852 8.10395 3.48116 7.61402C3.1538 7.1241 2.97907 6.5481 2.97907 5.95887C2.97907 5.36965 3.1538 4.79365 3.48116 4.30372C3.80852 3.8138 4.27381 3.43195 4.81819 3.20647C5.36257 2.98099 5.96159 2.922 6.53949 3.03696C7.1174 3.15192 7.64824 3.43568 8.06487 3.85233L8.44783 4.23529L7.68192 5.00121L7.29896 4.61825C7.12291 4.44218 6.91391 4.30252 6.68388 4.20723C6.45386 4.11195 6.20731 4.0629 5.95833 4.0629C5.70935 4.0629 5.46281 4.11195 5.23278 4.20723C5.00276 4.30252 4.79375 4.44218 4.61771 4.61825Z" fill="black"/>
</svg>
