<svg width="56" height="56" viewBox="0 0 56 56" fill="none" xmlns="http://www.w3.org/2000/svg">
<path d="M51.858 28.0002C51.858 40.8549 41.1536 51.2758 27.9489 51.2758C14.7443 51.2758 4.03986 40.8549 4.03986 28.0002C4.03986 15.1454 14.7443 4.72461 27.9489 4.72461C41.1536 4.72461 51.858 15.1454 51.858 28.0002Z" fill="white"/>
<path d="M34.0283 28.0002C34.0283 24.7865 36.7044 22.1813 40.0056 22.1813C43.3068 22.1813 45.9829 24.7865 45.9829 28.0002L45.9829 33.8191L34.0283 33.8191L34.0283 28.0002Z" fill="#2BE6D5"/>
<path fill-rule="evenodd" clip-rule="evenodd" d="M28.0511 39.638L28.0511 51.2758C37.9545 51.2758 45.9829 43.4601 45.9829 33.8191L34.0283 33.8191C34.0283 37.0328 31.3522 39.638 28.0511 39.638C28.0858 39.6385 28.0162 39.638 28.0511 39.638Z" fill="#2BE6D5"/>
<path d="M10.1192 51.2758C6.81808 51.2758 4.14197 48.6705 4.14197 45.4569C4.14197 42.2432 6.81808 39.638 10.1192 39.638H28.0511L28.0511 51.2758H10.1192Z" fill="#2BE6D5"/>
<path d="M22.0738 28.0002C22.0738 31.2139 19.3977 33.8191 16.0965 33.8191C12.7954 33.8191 10.1192 31.2139 10.1192 28.0002L10.1192 22.1813L22.0738 22.1813L22.0738 28.0002Z" fill="black"/>
<path fill-rule="evenodd" clip-rule="evenodd" d="M28.0511 16.3624L28.0511 4.72461C18.1476 4.72461 10.1192 12.5402 10.1192 22.1813L22.0738 22.1813C22.0738 18.9676 24.7499 16.3624 28.0511 16.3624C28.0859 16.3624 28.0163 16.3618 28.0511 16.3624Z" fill="black"/>
<path d="M45.9829 4.72461C49.284 4.72461 51.9602 7.32982 51.9602 10.5435C51.9602 13.7572 49.284 16.3624 45.9829 16.3624H28.0511L28.0511 4.72461H45.9829Z" fill="black"/>
</svg>
