<svg width="227" height="87" viewBox="0 0 227 87" fill="none" xmlns="http://www.w3.org/2000/svg">
<path d="M62.8389 22.6527C62.8389 21.1877 64.0193 20 65.4754 20C66.9315 20 68.1119 21.1877 68.1119 22.6527V38.5691C68.1119 40.0342 66.9315 41.2218 65.4754 41.2218C64.0193 41.2218 62.8389 40.0342 62.8389 38.5691V22.6527Z" fill="black"/>
<path d="M78.6579 22.6527C78.6579 21.1877 79.8383 20 81.2944 20C82.7505 20 83.9309 21.1877 83.9309 22.6527V38.5691C83.9309 40.0342 82.7505 41.2218 81.2944 41.2218C79.8383 41.2218 78.6579 40.0342 78.6579 38.5691V22.6527Z" fill="black"/>
<path d="M70.7484 30.6109C70.7484 29.1459 71.9288 27.9582 73.3849 27.9582C74.841 27.9582 76.0214 29.1459 76.0214 30.6109C76.0214 32.076 74.841 33.2637 73.3849 33.2637C71.9288 33.2637 70.7484 32.076 70.7484 30.6109Z" fill="black"/>
<path d="M142.7 49.03C142.7 47.6122 143.926 46.4629 145.438 46.4629C146.951 46.4629 148.177 47.6122 148.177 49.03V64.433C148.177 65.8508 146.951 67.0002 145.438 67.0002C143.926 67.0002 142.7 65.8508 142.7 64.433V49.03Z" fill="black"/>
<path d="M159.13 49.03C159.13 47.6122 160.356 46.4629 161.868 46.4629C163.381 46.4629 164.607 47.6122 164.607 49.03V64.433C164.607 65.8508 163.381 67.0002 161.868 67.0002C160.356 67.0002 159.13 65.8508 159.13 64.433V49.03Z" fill="black"/>
<path d="M150.915 56.7315C150.915 55.3137 152.141 54.1644 153.653 54.1644C155.166 54.1644 156.392 55.3137 156.392 56.7315C156.392 58.1493 155.166 59.2987 153.653 59.2987C152.141 59.2987 150.915 58.1493 150.915 56.7315Z" fill="black"/>
<path d="M89.9879 28.9722C89.9879 27.5544 91.0606 26.405 92.3839 26.405C93.7072 26.405 94.7799 27.5544 94.7799 28.9722V38.4193C94.7799 39.8371 93.7072 40.9865 92.3839 40.9865C91.0606 40.9865 89.9879 39.8371 89.9879 38.4193V28.9722Z" fill="black"/>
<path d="M89.9879 23.0164C89.9879 21.5986 91.0606 20.4492 92.3839 20.4492C93.7072 20.4492 94.7799 21.5986 94.7799 23.0164C94.7799 24.4342 93.7072 25.5835 92.3839 25.5835C91.0606 25.5835 89.9879 24.4342 89.9879 23.0164Z" fill="black"/>
<path d="M160.927 30.7179C160.927 29.3001 162.115 28.1507 163.58 28.1507C165.045 28.1507 166.232 29.3001 166.232 30.7179C166.232 32.1357 165.045 33.285 163.58 33.285C162.115 33.285 160.927 32.1357 160.927 30.7179Z" fill="black"/>
<path d="M174.191 38.4193C174.191 39.8371 173.003 40.9865 171.538 40.9865C170.073 40.9865 168.885 39.8371 168.885 38.4193V30.7179H174.191V38.4193Z" fill="black"/>
<path d="M158.274 38.4193C158.274 39.8371 157.087 40.9865 155.622 40.9865C154.156 40.9865 152.969 39.8371 152.969 38.4193L152.969 30.7179H158.274L158.274 38.4193Z" fill="black"/>
<path d="M174.191 30.7179C174.191 25.0466 169.44 20.4492 163.58 20.4492C157.719 20.4492 152.969 25.0466 152.969 30.7179H158.274C158.274 30.6837 158.274 30.6495 158.274 30.6152C158.274 27.8079 160.65 25.5322 163.58 25.5322C166.51 25.5322 168.885 27.8079 168.885 30.6152C168.885 30.6495 168.886 30.6837 168.885 30.7179H174.191Z" fill="black"/>
<path d="M113.46 30.6109C113.46 29.1459 114.64 27.9582 116.097 27.9582C117.553 27.9582 118.733 29.1459 118.733 30.6109L118.733 33.2637L113.46 33.2637L113.46 30.6109Z" fill="black"/>
<path fill-rule="evenodd" clip-rule="evenodd" d="M110.824 35.9164L110.824 41.2218C115.192 41.2218 118.733 37.6588 118.733 33.2637L113.46 33.2637C113.46 34.7287 112.28 35.9164 110.824 35.9164C110.839 35.9166 110.808 35.9164 110.824 35.9164Z" fill="black"/>
<path d="M102.914 41.2218C101.458 41.2218 100.278 40.0342 100.278 38.5691C100.278 37.104 101.458 35.9164 102.914 35.9164H110.824L110.824 41.2218H102.914Z" fill="black"/>
<path d="M108.187 30.6109C108.187 32.076 107.007 33.2637 105.551 33.2637C104.094 33.2637 102.914 32.076 102.914 30.6109L102.914 27.9582L108.187 27.9582L108.187 30.6109Z" fill="black"/>
<path fill-rule="evenodd" clip-rule="evenodd" d="M110.824 25.3055L110.824 20C106.455 20 102.914 23.563 102.914 27.9582L108.187 27.9582C108.187 26.4931 109.367 25.3055 110.824 25.3055C110.839 25.3055 110.808 25.3052 110.824 25.3055Z" fill="black"/>
<path d="M118.733 20C120.189 20 121.37 21.1877 121.37 22.6527C121.37 24.1178 120.189 25.3055 118.733 25.3055H110.824L110.824 20H118.733Z" fill="black"/>
<path d="M215.95 20.4492C221.999 20.4492 226.903 25.0466 226.903 30.7179L221.425 30.7179C221.426 30.6837 221.426 30.6495 221.426 30.6152C221.426 27.8079 218.974 25.5322 215.95 25.5322C212.925 25.5322 210.473 27.8079 210.473 30.6152C210.473 30.6495 210.474 30.6837 210.474 30.7179L204.997 30.7179L204.997 30.726C204.997 30.7233 204.997 30.7206 204.997 30.7179C204.997 25.0466 209.901 20.4492 215.95 20.4492Z" fill="black"/>
<path d="M204.997 30.7179C204.997 36.3891 209.901 40.9865 215.95 40.9865C221.999 40.9865 226.903 36.3891 226.903 30.7179C226.903 30.7179 226.903 30.7179 226.903 30.7179L221.425 30.7179C221.426 30.752 221.426 30.7862 221.426 30.8205C221.426 33.6278 218.974 35.9035 215.95 35.9035C212.925 35.9035 210.473 33.6278 210.473 30.8205C210.473 30.7862 210.474 30.752 210.474 30.7179L204.997 30.7179Z" fill="black"/>
<path d="M129.009 35.8522C127.496 35.8522 126.27 34.7028 126.27 33.285C126.27 31.8672 127.496 30.7179 129.009 30.7179L139.962 30.7179V35.8522H129.009Z" fill="black"/>
<path d="M126.27 33.285C126.27 31.8672 127.496 30.7179 129.009 30.7179C130.521 30.7179 131.747 31.8672 131.747 33.285V38.4193C131.747 39.8371 130.521 40.9865 129.009 40.9865C127.496 40.9865 126.27 39.8371 126.27 38.4193L126.27 33.285Z" fill="black"/>
<path d="M129.009 25.5835C127.496 25.5835 126.27 24.4342 126.27 23.0164C126.27 21.5986 127.496 20.4492 129.009 20.4492L139.962 20.4492V25.5835L129.009 25.5835Z" fill="black"/>
<path d="M139.962 35.8522C144.499 35.8522 148.177 32.4041 148.177 28.1507C148.177 23.8973 144.499 20.4492 139.962 20.4492V25.5835C141.442 25.602 142.636 26.7316 142.636 28.1379C142.636 29.5441 141.442 30.6993 139.962 30.7179V35.8522Z" fill="black"/>
<path d="M83.8267 56.7315C83.8267 51.0603 78.9228 46.4629 72.8735 46.4629C66.8242 46.4629 61.9203 51.0603 61.9203 56.7315C61.9203 56.7315 61.9203 56.7315 61.9203 56.7315L67.398 56.7315C67.3973 56.6974 67.3969 56.6631 67.3969 56.6288C67.3969 53.8216 69.8489 51.5459 72.8735 51.5459C75.8981 51.5459 78.3501 53.8216 78.3501 56.6288C78.3501 56.6631 78.3497 56.6974 78.349 56.7315L83.8267 56.7315Z" fill="black"/>
<path d="M70.1352 49.0301C70.1352 47.6122 71.3612 46.4629 72.8735 46.4629C74.3858 46.4629 75.6118 47.6122 75.6118 49.0301V64.433C75.6118 65.8508 74.3858 67.0002 72.8735 67.0002C71.3612 67.0002 70.1352 65.8508 70.1352 64.433V49.0301Z" fill="black"/>
<path d="M67.3969 56.7315C67.3969 58.1493 66.1709 59.2987 64.6586 59.2987C63.1463 59.2987 61.9203 58.1493 61.9203 56.7315C61.9203 55.3137 63.1463 54.1644 64.6586 54.1644C66.1709 54.1644 67.3969 55.3137 67.3969 56.7315Z" fill="black"/>
<path d="M83.8267 56.7315C83.8267 58.1493 82.6007 59.2987 81.0884 59.2987C79.5761 59.2987 78.3501 58.1493 78.3501 56.7315C78.3501 55.3137 79.5761 54.1644 81.0884 54.1644C82.6007 54.1644 83.8267 55.3137 83.8267 56.7315Z" fill="black"/>
<path d="M133.886 46.4629C135.351 46.4629 136.539 47.6122 136.539 49.03C136.539 50.4479 135.351 51.5972 133.886 51.5972L125.928 51.5972L125.928 46.4629L133.886 46.4629Z" fill="black"/>
<path d="M133.886 61.8658C135.351 61.8658 136.539 63.0152 136.539 64.433C136.539 65.8508 135.351 67.0002 133.886 67.0002L125.928 67.0002L125.928 61.8658L133.886 61.8658Z" fill="black"/>
<path d="M125.928 46.4629C120.068 46.4629 115.317 51.0603 115.317 56.7315C115.317 62.4027 120.068 67.0002 125.928 67.0002L125.928 61.8658C125.893 61.8665 125.857 61.8658 125.822 61.8658C122.921 61.8658 120.57 59.5671 120.57 56.7315C120.57 53.8959 122.921 51.5972 125.822 51.5972C125.857 51.5972 125.893 51.5965 125.928 51.5972L125.928 46.4629Z" fill="black"/>
<path d="M200.889 38.4193C200.889 39.8371 199.663 40.9865 198.151 40.9865C196.639 40.9865 195.413 39.8371 195.413 38.4193V30.7179H200.889V38.4193Z" fill="black"/>
<path d="M184.459 38.4193C184.459 39.8371 183.233 40.9865 181.721 40.9865C180.209 40.9865 178.983 39.8371 178.983 38.4193L178.983 30.7179H184.459L184.459 38.4193Z" fill="black"/>
<path d="M200.889 30.7179C200.889 25.0466 195.985 20.4492 189.936 20.4492C183.887 20.4492 178.983 25.0466 178.983 30.7179H184.459C184.459 30.6837 184.459 30.6495 184.459 30.6152C184.459 27.8079 186.911 25.5322 189.936 25.5322C192.961 25.5322 195.413 27.8079 195.413 30.6152C195.413 30.6495 195.413 30.6837 195.413 30.7179H200.889Z" fill="black"/>
<path d="M99.5719 59.2987C98.0596 59.2987 96.8336 58.1493 96.8336 56.7315C96.8336 55.3137 98.0596 54.1644 99.5719 54.1644C101.084 54.1644 102.31 55.3137 102.31 56.7315C102.31 58.1493 101.084 59.2987 99.5719 59.2987Z" fill="black"/>
<path d="M107.787 46.4629C109.299 46.4629 110.525 47.6122 110.525 49.03C110.525 50.4479 109.299 51.5972 107.787 51.5972L99.5719 51.5972L99.5719 46.4629L107.787 46.4629Z" fill="black"/>
<path d="M107.787 61.8658C109.299 61.8658 110.525 63.0152 110.525 64.433C110.525 65.8508 109.299 67.0002 107.787 67.0002L99.5719 67.0002L99.5719 61.8658L107.787 61.8658Z" fill="black"/>
<path d="M99.5719 46.4629C93.5226 46.4629 88.6187 51.0603 88.6187 56.7315C88.6187 62.4027 93.5226 67.0002 99.5719 67.0002L99.5719 61.8658C99.5355 61.8665 99.499 61.8658 99.4624 61.8658C96.468 61.8658 94.0406 59.5671 94.0406 56.7315C94.0406 53.8959 96.468 51.5972 99.4624 51.5972C99.499 51.5972 99.5355 51.5965 99.5719 51.5972L99.5719 46.4629Z" fill="black"/>
<path d="M47.8182 43.7243C47.8182 56.579 37.1137 66.9999 23.9091 66.9999C10.7045 66.9999 0 56.579 0 43.7243C0 30.8696 10.7045 20.4487 23.9091 20.4487C37.1137 20.4487 47.8182 30.8696 47.8182 43.7243Z" fill="white"/>
<path d="M29.9885 43.7243C29.9885 40.5106 32.6646 37.9054 35.9658 37.9054C39.2669 37.9054 41.943 40.5106 41.943 43.7243L41.943 49.5432L29.9885 49.5432L29.9885 43.7243Z" fill="#2BE6D5"/>
<path fill-rule="evenodd" clip-rule="evenodd" d="M24.0112 55.3621L24.0112 66.9999C33.9147 66.9999 41.943 59.1843 41.943 49.5432L29.9885 49.5432C29.9885 52.7569 27.3124 55.3621 24.0112 55.3621C24.0459 55.3627 23.9763 55.3621 24.0112 55.3621Z" fill="#2BE6D5"/>
<path d="M6.07938 66.9999C2.77823 66.9999 0.102112 64.3947 0.102112 61.181C0.102112 57.9673 2.77823 55.3621 6.07939 55.3621H24.0112L24.0112 66.9999H6.07938Z" fill="#2BE6D5"/>
<path d="M18.0339 43.7243C18.0339 46.938 15.3578 49.5432 12.0567 49.5432C8.7555 49.5432 6.07939 46.938 6.07938 43.7243L6.07938 37.9054L18.0339 37.9054L18.0339 43.7243Z" fill="black"/>
<path fill-rule="evenodd" clip-rule="evenodd" d="M24.0112 32.0865L24.0112 20.4487C14.1077 20.4487 6.07938 28.2644 6.07938 37.9054L18.0339 37.9054C18.0339 34.6917 20.71 32.0865 24.0112 32.0865C24.0461 32.0865 23.9765 32.0859 24.0112 32.0865Z" fill="black"/>
<path d="M41.943 20.4487C45.2442 20.4487 47.9203 23.0539 47.9203 26.2676C47.9203 29.4813 45.2442 32.0865 41.943 32.0865H24.0112L24.0112 20.4487H41.943Z" fill="black"/>
</svg>
