<svg width="218" height="87" viewBox="0 0 218 87" fill="none" xmlns="http://www.w3.org/2000/svg">
<path d="M52.9464 22.6527C52.9464 21.1877 54.1268 20 55.5829 20C57.039 20 58.2194 21.1877 58.2194 22.6527V38.5691C58.2194 40.0342 57.039 41.2218 55.5829 41.2218C54.1268 41.2218 52.9464 40.0342 52.9464 38.5691V22.6527Z" fill="white"/>
<path d="M68.7654 22.6527C68.7654 21.1877 69.9458 20 71.4019 20C72.858 20 74.0384 21.1877 74.0384 22.6527V38.5691C74.0384 40.0342 72.858 41.2218 71.4019 41.2218C69.9458 41.2218 68.7654 40.0342 68.7654 38.5691V22.6527Z" fill="white"/>
<path d="M60.8559 30.6109C60.8559 29.1459 62.0363 27.9582 63.4924 27.9582C64.9485 27.9582 66.1289 29.1459 66.1289 30.6109C66.1289 32.076 64.9485 33.2637 63.4924 33.2637C62.0363 33.2637 60.8559 32.076 60.8559 30.6109Z" fill="white"/>
<path d="M132.808 49.03C132.808 47.6122 134.034 46.4629 135.546 46.4629C137.058 46.4629 138.284 47.6122 138.284 49.03V64.433C138.284 65.8508 137.058 67.0002 135.546 67.0002C134.034 67.0002 132.808 65.8508 132.808 64.433V49.03Z" fill="white"/>
<path d="M149.237 49.03C149.237 47.6122 150.463 46.4629 151.976 46.4629C153.488 46.4629 154.714 47.6122 154.714 49.03V64.433C154.714 65.8508 153.488 67.0002 151.976 67.0002C150.463 67.0002 149.237 65.8508 149.237 64.433V49.03Z" fill="white"/>
<path d="M141.023 56.7315C141.023 55.3137 142.249 54.1644 143.761 54.1644C145.273 54.1644 146.499 55.3137 146.499 56.7315C146.499 58.1493 145.273 59.2987 143.761 59.2987C142.249 59.2987 141.023 58.1493 141.023 56.7315Z" fill="white"/>
<path d="M80.0954 28.9717C80.0954 27.5539 81.1681 26.4045 82.4914 26.4045C83.8147 26.4045 84.8874 27.5539 84.8874 28.9717V38.4188C84.8874 39.8366 83.8147 40.986 82.4914 40.986C81.1681 40.986 80.0954 39.8366 80.0954 38.4188V28.9717Z" fill="white"/>
<path d="M80.0954 23.0159C80.0954 21.5981 81.1681 20.4487 82.4914 20.4487C83.8147 20.4487 84.8874 21.5981 84.8874 23.0159C84.8874 24.4337 83.8147 25.583 82.4914 25.583C81.1681 25.583 80.0954 24.4337 80.0954 23.0159Z" fill="white"/>
<path d="M151.034 30.7174C151.034 29.2996 152.222 28.1502 153.687 28.1502C155.152 28.1502 156.34 29.2996 156.34 30.7174C156.34 32.1352 155.152 33.2845 153.687 33.2845C152.222 33.2845 151.034 32.1352 151.034 30.7174Z" fill="white"/>
<path d="M164.298 38.4188C164.298 39.8366 163.11 40.986 161.645 40.986C160.18 40.986 158.993 39.8366 158.993 38.4188V30.7174H164.298V38.4188Z" fill="white"/>
<path d="M148.382 38.4188C148.382 39.8366 147.194 40.986 145.729 40.986C144.264 40.986 143.076 39.8366 143.076 38.4188L143.076 30.7174H148.382L148.382 38.4188Z" fill="white"/>
<path d="M164.298 30.7174C164.298 25.0462 159.547 20.4487 153.687 20.4487C147.827 20.4487 143.076 25.0462 143.076 30.7174H148.382C148.381 30.6832 148.382 30.649 148.382 30.6147C148.382 27.8074 150.757 25.5317 153.687 25.5317C156.617 25.5317 158.993 27.8074 158.993 30.6147C158.993 30.649 158.993 30.6832 158.993 30.7174H164.298Z" fill="white"/>
<path d="M103.568 30.6109C103.568 29.1459 104.748 27.9582 106.204 27.9582C107.66 27.9582 108.841 29.1459 108.841 30.6109L108.841 33.2637L103.568 33.2637L103.568 30.6109Z" fill="white"/>
<path fill-rule="evenodd" clip-rule="evenodd" d="M100.931 35.9164L100.931 41.2218C105.299 41.2218 108.841 37.6588 108.841 33.2637L103.568 33.2637C103.568 34.7287 102.387 35.9164 100.931 35.9164C100.946 35.9166 100.916 35.9164 100.931 35.9164Z" fill="white"/>
<path d="M93.0215 41.2218C91.5654 41.2218 90.385 40.0342 90.385 38.5691C90.385 37.104 91.5654 35.9164 93.0215 35.9164H100.931L100.931 41.2218H93.0215Z" fill="white"/>
<path d="M98.2945 30.6109C98.2945 32.076 97.1141 33.2637 95.658 33.2637C94.2019 33.2637 93.0215 32.076 93.0215 30.6109L93.0215 27.9582L98.2945 27.9582L98.2945 30.6109Z" fill="white"/>
<path fill-rule="evenodd" clip-rule="evenodd" d="M100.931 25.3055L100.931 20C96.5627 20 93.0215 23.563 93.0215 27.9582L98.2945 27.9582C98.2945 26.4931 99.4749 25.3055 100.931 25.3055C100.946 25.3055 100.916 25.3052 100.931 25.3055Z" fill="white"/>
<path d="M108.841 20C110.297 20 111.477 21.1877 111.477 22.6527C111.477 24.1178 110.297 25.3055 108.841 25.3055H100.931L100.931 20H108.841Z" fill="white"/>
<path d="M206.057 20.4487C212.107 20.4487 217.011 25.0462 217.011 30.7174L211.533 30.7174C211.534 30.6832 211.534 30.649 211.534 30.6147C211.534 27.8074 209.082 25.5317 206.057 25.5317C203.033 25.5317 200.581 27.8074 200.581 30.6147C200.581 30.649 200.581 30.6832 200.582 30.7174L195.104 30.7174L195.104 30.7255C195.104 30.7228 195.104 30.7201 195.104 30.7174C195.104 25.0462 200.008 20.4487 206.057 20.4487Z" fill="white"/>
<path d="M195.104 30.7174C195.104 36.3886 200.008 40.986 206.057 40.986C212.107 40.986 217.011 36.3886 217.011 30.7174C217.011 30.7174 217.011 30.7174 217.011 30.7174L211.533 30.7174C211.534 30.7515 211.534 30.7857 211.534 30.8201C211.534 33.6273 209.082 35.903 206.057 35.903C203.033 35.903 200.581 33.6273 200.581 30.8201C200.581 30.7857 200.581 30.7515 200.582 30.7174L195.104 30.7174Z" fill="white"/>
<path d="M119.116 35.8517C117.604 35.8517 116.378 34.7023 116.378 33.2845C116.378 31.8667 117.604 30.7174 119.116 30.7174L130.069 30.7174V35.8517H119.116Z" fill="white"/>
<path d="M116.378 33.2845C116.378 31.8667 117.604 30.7174 119.116 30.7174C120.628 30.7174 121.854 31.8667 121.854 33.2845V38.4188C121.854 39.8366 120.628 40.986 119.116 40.986C117.604 40.986 116.378 39.8366 116.378 38.4188L116.378 33.2845Z" fill="white"/>
<path d="M119.116 25.583C117.604 25.583 116.378 24.4337 116.378 23.0159C116.378 21.5981 117.604 20.4487 119.116 20.4487L130.069 20.4487V25.583L119.116 25.583Z" fill="white"/>
<path d="M130.069 35.8517C134.606 35.8517 138.284 32.4036 138.284 28.1502C138.284 23.8968 134.606 20.4487 130.069 20.4487V25.583C131.55 25.6016 132.744 26.7311 132.744 28.1374C132.744 29.5436 131.55 30.6989 130.069 30.7174V35.8517Z" fill="white"/>
<path d="M73.9342 56.7315C73.9342 51.0603 69.0303 46.4629 62.981 46.4629C56.9317 46.4629 52.0278 51.0603 52.0278 56.7315C52.0278 56.7315 52.0278 56.7315 52.0278 56.7315L57.5055 56.7315C57.5047 56.6974 57.5044 56.6631 57.5044 56.6288C57.5044 53.8216 59.9563 51.5459 62.981 51.5459C66.0056 51.5459 68.4576 53.8216 68.4576 56.6288C68.4576 56.6631 68.4572 56.6974 68.4565 56.7315L73.9342 56.7315Z" fill="white"/>
<path d="M60.2427 49.0301C60.2427 47.6122 61.4687 46.4629 62.981 46.4629C64.4933 46.4629 65.7193 47.6122 65.7193 49.0301V64.433C65.7193 65.8508 64.4933 67.0002 62.981 67.0002C61.4687 67.0002 60.2427 65.8508 60.2427 64.433V49.0301Z" fill="white"/>
<path d="M57.5044 56.7315C57.5044 58.1493 56.2784 59.2987 54.7661 59.2987C53.2538 59.2987 52.0278 58.1493 52.0278 56.7315C52.0278 55.3137 53.2538 54.1644 54.7661 54.1644C56.2784 54.1644 57.5044 55.3137 57.5044 56.7315Z" fill="white"/>
<path d="M73.9342 56.7315C73.9342 58.1493 72.7082 59.2987 71.1959 59.2987C69.6836 59.2987 68.4576 58.1493 68.4576 56.7315C68.4576 55.3137 69.6836 54.1644 71.1959 54.1644C72.7082 54.1644 73.9342 55.3137 73.9342 56.7315Z" fill="white"/>
<path d="M123.994 46.4629C125.459 46.4629 126.646 47.6122 126.646 49.03C126.646 50.4479 125.459 51.5972 123.994 51.5972L116.036 51.5972L116.036 46.4629L123.994 46.4629Z" fill="white"/>
<path d="M123.994 61.8658C125.459 61.8658 126.646 63.0152 126.646 64.433C126.646 65.8508 125.459 67.0002 123.994 67.0002L116.036 67.0002L116.036 61.8658L123.994 61.8658Z" fill="white"/>
<path d="M116.036 46.4629C110.175 46.4629 105.425 51.0603 105.425 56.7315C105.425 62.4027 110.175 67.0002 116.036 67.0002L116.036 61.8658C116 61.8665 115.965 61.8658 115.929 61.8658C113.029 61.8658 110.677 59.5671 110.677 56.7315C110.677 53.8959 113.029 51.5972 115.929 51.5972C115.965 51.5972 116 51.5965 116.036 51.5972L116.036 46.4629Z" fill="white"/>
<path d="M190.997 38.4188C190.997 39.8366 189.771 40.986 188.258 40.986C186.746 40.986 185.52 39.8366 185.52 38.4188V30.7174H190.997V38.4188Z" fill="white"/>
<path d="M174.567 38.4188C174.567 39.8366 173.341 40.986 171.829 40.986C170.316 40.986 169.09 39.8366 169.09 38.4188L169.09 30.7174H174.567L174.567 38.4188Z" fill="white"/>
<path d="M190.997 30.7174C190.997 25.0462 186.093 20.4487 180.043 20.4487C173.994 20.4487 169.09 25.0462 169.09 30.7174H174.567C174.566 30.6832 174.567 30.649 174.567 30.6147C174.567 27.8074 177.019 25.5317 180.043 25.5317C183.068 25.5317 185.52 27.8074 185.52 30.6147C185.52 30.649 185.521 30.6832 185.52 30.7174H190.997Z" fill="white"/>
<path d="M89.6794 59.2987C88.1671 59.2987 86.9411 58.1493 86.9411 56.7315C86.9411 55.3137 88.1671 54.1644 89.6794 54.1644C91.1917 54.1644 92.4177 55.3137 92.4177 56.7315C92.4177 58.1493 91.1917 59.2987 89.6794 59.2987Z" fill="white"/>
<path d="M97.8943 46.4629C99.4066 46.4629 100.633 47.6122 100.633 49.03C100.633 50.4479 99.4066 51.5972 97.8943 51.5972L89.6794 51.5972L89.6794 46.4629L97.8943 46.4629Z" fill="white"/>
<path d="M97.8943 61.8658C99.4066 61.8658 100.633 63.0152 100.633 64.433C100.633 65.8508 99.4066 67.0002 97.8943 67.0002L89.6794 67.0002L89.6794 61.8658L97.8943 61.8658Z" fill="white"/>
<path d="M89.6794 46.4629C83.6301 46.4629 78.7262 51.0603 78.7262 56.7315C78.7262 62.4027 83.6301 67.0002 89.6794 67.0002L89.6794 61.8658C89.643 61.8665 89.6065 61.8658 89.5699 61.8658C86.5755 61.8658 84.148 59.5671 84.148 56.7315C84.148 53.8959 86.5755 51.5972 89.5699 51.5972C89.6065 51.5972 89.643 51.5965 89.6794 51.5972L89.6794 46.4629Z" fill="white"/>
<path d="M47.8182 43.7243C47.8182 56.579 37.1137 66.9999 23.9091 66.9999C10.7045 66.9999 0 56.579 0 43.7243C0 30.8696 10.7045 20.4487 23.9091 20.4487C37.1137 20.4487 47.8182 30.8696 47.8182 43.7243Z" fill="white"/>
<path d="M29.9885 43.7243C29.9885 40.5106 32.6646 37.9054 35.9658 37.9054C39.2669 37.9054 41.943 40.5106 41.943 43.7243L41.943 49.5432L29.9885 49.5432L29.9885 43.7243Z" fill="#2BE6D5"/>
<path fill-rule="evenodd" clip-rule="evenodd" d="M24.0112 55.3621L24.0112 66.9999C33.9147 66.9999 41.943 59.1843 41.943 49.5432L29.9885 49.5432C29.9885 52.7569 27.3124 55.3621 24.0112 55.3621C24.0459 55.3627 23.9763 55.3621 24.0112 55.3621Z" fill="#2BE6D5"/>
<path d="M6.07938 66.9999C2.77823 66.9999 0.102112 64.3947 0.102112 61.181C0.102112 57.9673 2.77823 55.3621 6.07939 55.3621H24.0112L24.0112 66.9999H6.07938Z" fill="#2BE6D5"/>
<path d="M18.0339 43.7243C18.0339 46.938 15.3578 49.5432 12.0567 49.5432C8.7555 49.5432 6.07939 46.938 6.07938 43.7243L6.07938 37.9054L18.0339 37.9054L18.0339 43.7243Z" fill="black"/>
<path fill-rule="evenodd" clip-rule="evenodd" d="M24.0112 32.0865L24.0112 20.4487C14.1077 20.4487 6.07938 28.2644 6.07938 37.9054L18.0339 37.9054C18.0339 34.6917 20.71 32.0865 24.0112 32.0865C24.0461 32.0865 23.9765 32.0859 24.0112 32.0865Z" fill="black"/>
<path d="M41.943 20.4487C45.2442 20.4487 47.9203 23.0539 47.9203 26.2676C47.9203 29.4813 45.2442 32.0865 41.943 32.0865H24.0112L24.0112 20.4487H41.943Z" fill="black"/>
</svg>
