<svg width="75" height="17" viewBox="0 0 75 17" fill="none" xmlns="http://www.w3.org/2000/svg">
<path d="M74.9843 16C74.9843 16.5523 74.5366 17 73.9843 17C73.432 17 72.9843 16.5523 72.9843 16H74.9843ZM73.9843 7.72414H72.9843V7.68776L72.987 7.65148L73.9843 7.72414ZM1 2H0V0H1V2ZM72.9843 16V7.72414H74.9843V16H72.9843ZM72.987 7.65148C73.057 6.6907 72.8598 5.24482 72.0849 4.07323C71.3514 2.96434 70.0386 2 67.6165 2V0C70.6805 0 72.6333 1.27703 73.753 2.96987C74.8313 4.6 75.075 6.5162 74.9817 7.79679L72.987 7.65148ZM67.6165 2C67.6058 2 67.595 2 67.584 2C67.573 2 67.5619 2 67.5506 2C67.5394 2 67.528 2 67.5164 2C67.5049 2 67.4932 2 67.4814 2C67.4696 2 67.4577 2 67.4456 2C67.4336 2 67.4214 2 67.409 2C67.3967 2 67.3842 2 67.3716 2C67.359 2 67.3463 2 67.3334 2C67.3206 2 67.3076 2 67.2944 2C67.2813 2 67.268 2 67.2546 2C67.2412 2 67.2277 2 67.214 2C67.2004 2 67.1866 2 67.1727 2C67.1587 2 67.1447 2 67.1305 2C67.1163 2 67.102 2 67.0875 2C67.0731 2 67.0585 2 67.0438 2C67.0291 2 67.0143 2 66.9993 2C66.9843 2 66.9692 2 66.954 2C66.9388 2 66.9234 2 66.9079 2C66.8925 2 66.8768 2 66.8611 2C66.8454 2 66.8295 2 66.8135 2C66.7975 2 66.7814 2 66.7651 2C66.7489 2 66.7325 2 66.716 2C66.6995 2 66.6829 2 66.6661 2C66.6493 2 66.6325 2 66.6154 2C66.5984 2 66.5813 2 66.564 2C66.5468 2 66.5294 2 66.5119 2C66.4943 2 66.4767 2 66.4589 2C66.4412 2 66.4233 2 66.4053 2C66.3873 2 66.3691 2 66.3509 2C66.3326 2 66.3142 2 66.2957 2C66.2772 2 66.2586 2 66.2398 2C66.2211 2 66.2022 2 66.1832 2C66.1642 2 66.145 2 66.1258 2C66.1065 2 66.0872 2 66.0677 2C66.0482 2 66.0286 2 66.0089 2C65.9891 2 65.9693 2 65.9493 2C65.9293 2 65.9092 2 65.889 2C65.8688 2 65.8484 2 65.828 2C65.8075 2 65.7869 2 65.7662 2C65.7455 2 65.7247 2 65.7038 2C65.6828 2 65.6618 2 65.6406 2C65.6194 2 65.5981 2 65.5767 2C65.5553 2 65.5338 2 65.5121 2C65.4905 2 65.4687 2 65.4468 2C65.425 2 65.4029 2 65.3808 2C65.3587 2 65.3365 2 65.3141 2C65.2918 2 65.2693 2 65.2467 2C65.2241 2 65.2014 2 65.1786 2C65.1558 2 65.1328 2 65.1098 2C65.0867 2 65.0636 2 65.0403 2C65.017 2 64.9936 2 64.9701 2C64.9466 2 64.923 2 64.8992 2C64.8755 2 64.8516 2 64.8277 2C64.8037 2 64.7796 2 64.7554 2C64.7312 2 64.7069 2 64.6825 2C64.6581 2 64.6336 2 64.6089 2C64.5843 2 64.5595 2 64.5346 2C64.5098 2 64.4848 2 64.4597 2C64.4346 2 64.4094 2 64.3841 2C64.3587 2 64.3333 2 64.3078 2C64.2822 2 64.2566 2 64.2308 2C64.2051 2 64.1792 2 64.1532 2C64.1272 2 64.1011 2 64.0749 2C64.0487 2 64.0224 2 63.996 2C63.9696 2 63.9431 2 63.9164 2C63.8898 2 63.8631 2 63.8362 2C63.8093 2 63.7824 2 63.7553 2C63.7282 2 63.7011 2 63.6738 2C63.6465 2 63.6191 2 63.5916 2C63.5641 2 63.5365 2 63.5088 2C63.4811 2 63.4533 2 63.4253 2C63.3974 2 63.3694 2 63.3412 2C63.3131 2 63.2849 2 63.2565 2C63.2282 2 63.1997 2 63.1712 2C63.1426 2 63.1139 2 63.0852 2C63.0564 2 63.0275 2 62.9986 2C62.9696 2 62.9405 2 62.9113 2C62.8821 2 62.8528 2 62.8235 2C62.7941 2 62.7646 2 62.735 2C62.7054 2 62.6757 2 62.6459 2C62.6161 2 62.5862 2 62.5562 2C62.5262 2 62.4961 2 62.4658 2C62.4356 2 62.4053 2 62.3749 2C62.3445 2 62.314 2 62.2834 2C62.2528 2 62.2221 2 62.1912 2C62.1604 2 62.1295 2 62.0985 2C62.0675 2 62.0364 2 62.0052 2C61.974 2 61.9426 2 61.9112 2C61.8798 2 61.8483 2 61.8167 2C61.7851 2 61.7534 2 61.7216 2C61.6898 2 61.6579 2 61.6259 2C61.5939 2 61.5618 2 61.5296 2C61.4974 2 61.4651 2 61.4327 2C61.4003 2 61.3678 2 61.3353 2C61.3027 2 61.27 2 61.2372 2C61.2044 2 61.1716 2 61.1386 2C61.1056 2 61.0726 2 61.0394 2C61.0063 2 60.973 2 60.9397 2C60.9063 2 60.8729 2 60.8394 2C60.8058 2 60.7722 2 60.7385 2C60.7047 2 60.6709 2 60.637 2C60.6031 2 60.5691 2 60.535 2C60.5009 2 60.4667 2 60.4324 2C60.3982 2 60.3638 2 60.3293 2C60.2948 2 60.2603 2 60.2256 2C60.191 2 60.1562 2 60.1214 2C60.0866 2 60.0517 2 60.0166 2C59.9816 2 59.9465 2 59.9113 2C59.8761 2 59.8408 2 59.8055 2C59.7701 2 59.7346 2 59.6991 2C59.6635 2 59.6279 2 59.5921 2C59.5564 2 59.5206 2 59.4847 2C59.4487 2 59.4127 2 59.3767 2C59.3406 2 59.3044 2 59.2681 2C59.2319 2 59.1955 2 59.1591 2C59.1226 2 59.0861 2 59.0495 2C59.0129 2 58.9762 2 58.9394 2C58.9026 2 58.8657 2 58.8287 2C58.7918 2 58.7547 2 58.7176 2C58.6805 2 58.6432 2 58.6059 2C58.5686 2 58.5312 2 58.4938 2C58.4563 2 58.4187 2 58.3811 2C58.3434 2 58.3057 2 58.2679 2C58.2301 2 58.1922 2 58.1542 2C58.1162 2 58.0782 2 58.04 2C58.0019 2 57.9636 2 57.9253 2C57.887 2 57.8486 2 57.8101 2C57.7717 2 57.7331 2 57.6945 2C57.6558 2 57.6171 2 57.5783 2C57.5395 2 57.5006 2 57.4616 2C57.4227 2 57.3836 2 57.3445 2C57.3053 2 57.2661 2 57.2268 2C57.1876 2 57.1482 2 57.1087 2C57.0693 2 57.0298 2 56.9901 2C56.9505 2 56.9108 2 56.8711 2C56.8313 2 56.7915 2 56.7515 2C56.7116 2 56.6716 2 56.6315 2C56.5914 2 56.5513 2 56.511 2C56.4708 2 56.4305 2 56.3901 2C56.3497 2 56.3092 2 56.2687 2C56.2281 2 56.1875 2 56.1468 2C56.1061 2 56.0653 2 56.0245 2C55.9836 2 55.9427 2 55.9017 2C55.8607 2 55.8196 2 55.7785 2C55.7373 2 55.6961 2 55.6548 2C55.6135 2 55.5721 2 55.5306 2C55.4892 2 55.4476 2 55.406 2C55.3644 2 55.3228 2 55.281 2C55.2393 2 55.1975 2 55.1556 2C55.1137 2 55.0717 2 55.0297 2C54.9876 2 54.9455 2 54.9033 2C54.8611 2 54.8189 2 54.7765 2C54.7342 2 54.6918 2 54.6493 2C54.6069 2 54.5643 2 54.5217 2C54.4791 2 54.4364 2 54.3937 2C54.3509 2 54.3081 2 54.2652 2C54.2223 2 54.1793 2 54.1363 2C54.0932 2 54.0501 2 54.007 2C53.9638 2 53.9205 2 53.8772 2C53.8339 2 53.7905 2 53.7471 2C53.7036 2 53.6601 2 53.6165 2C53.573 2 53.5293 2 53.4856 2C53.4419 2 53.3981 2 53.3542 2C53.3104 2 53.2664 2 53.2224 2C53.1785 2 53.1344 2 53.0903 2C53.0462 2 53.002 2 52.9577 2C52.9135 2 52.8691 2 52.8248 2C52.7804 2 52.7359 2 52.6914 2C52.6469 2 52.6023 2 52.5577 2C52.513 2 52.4683 2 52.4235 2C52.3788 2 52.3339 2 52.289 2C52.2441 2 52.1992 2 52.1541 2C52.1091 2 52.064 2 52.0189 2C51.9737 2 51.9285 2 51.8832 2C51.8379 2 51.7926 2 51.7472 2C51.7018 2 51.6563 2 51.6108 2C51.5653 2 51.5197 2 51.474 2C51.4284 2 51.3827 2 51.3369 2C51.2911 2 51.2453 2 51.1994 2C51.1535 2 51.1076 2 51.0616 2C51.0155 2 50.9695 2 50.9233 2C50.8772 2 50.831 2 50.7848 2C50.7385 2 50.6922 2 50.6458 2C50.5995 2 50.553 2 50.5066 2C50.4601 2 50.4135 2 50.3669 2C50.3203 2 50.2737 2 50.227 2C50.1803 2 50.1335 2 50.0867 2C50.0398 2 49.9929 2 49.946 2C49.8991 2 49.8521 2 49.805 2C49.758 2 49.7108 2 49.6637 2C49.6165 2 49.5693 2 49.522 2C49.4747 2 49.4274 2 49.38 2C49.3326 2 49.2852 2 49.2377 2C49.1902 2 49.1427 2 49.095 2C49.0474 2 48.9998 2 48.9521 2C48.9044 2 48.8566 2 48.8088 2C48.761 2 48.7131 2 48.6652 2C48.6173 2 48.5693 2 48.5212 2C48.4732 2 48.4251 2 48.377 2C48.3289 2 48.2807 2 48.2325 2C48.1842 2 48.1359 2 48.0876 2C48.0393 2 47.9909 2 47.9424 2C47.894 2 47.8455 2 47.797 2C47.7484 2 47.6998 2 47.6512 2C47.6026 2 47.5539 2 47.5051 2C47.4564 2 47.4076 2 47.3588 2C47.31 2 47.2611 2 47.2121 2C47.1632 2 47.1142 2 47.0652 2C47.0162 2 46.9671 2 46.918 2C46.8688 2 46.8197 2 46.7705 2C46.7212 2 46.672 2 46.6227 2C46.5733 2 46.524 2 46.4746 2C46.4252 2 46.3757 2 46.3262 2C46.2767 2 46.2272 2 46.1776 2C46.128 2 46.0784 2 46.0287 2C45.979 2 45.9293 2 45.8795 2C45.8298 2 45.7799 2 45.7301 2C45.6802 2 45.6303 2 45.5804 2C45.5304 2 45.4805 2 45.4304 2C45.3804 2 45.3303 2 45.2802 2C45.2301 2 45.1799 2 45.1297 2C45.0795 2 45.0293 2 44.979 2C44.9287 2 44.8784 2 44.828 2C44.7776 2 44.7272 2 44.6768 2C44.6263 2 44.5758 2 44.5253 2C44.4747 2 44.4242 2 44.3736 2C44.3229 2 44.2723 2 44.2216 2C44.1709 2 44.1202 2 44.0694 2C44.0186 2 43.9678 2 43.9169 2C43.8661 2 43.8152 2 43.7643 2C43.7133 2 43.6624 2 43.6113 2C43.5603 2 43.5093 2 43.4582 2C43.4071 2 43.356 2 43.3048 2C43.2537 2 43.2025 2 43.1513 2C43.1 2 43.0488 2 42.9974 2C42.9461 2 42.8948 2 42.8434 2C42.792 2 42.7406 2 42.6892 2C42.6377 2 42.5862 2 42.5347 2C42.4832 2 42.4316 2 42.38 2C42.3285 2 42.2768 2 42.2252 2C42.1735 2 42.1218 2 42.0701 2C42.0184 2 41.9666 2 41.9148 2C41.863 2 41.8112 2 41.7593 2C41.7074 2 41.6556 2 41.6036 2C41.5517 2 41.4997 2 41.4477 2C41.3957 2 41.3437 2 41.2917 2C41.2396 2 41.1875 2 41.1354 2C41.0833 2 41.0311 2 40.9789 2C40.9268 2 40.8745 2 40.8223 2C40.7701 2 40.7178 2 40.6655 2C40.6132 2 40.5608 2 40.5085 2C40.4561 2 40.4037 2 40.3513 2C40.2989 2 40.2464 2 40.1939 2C40.1415 2 40.089 2 40.0364 2C39.9839 2 39.9313 2 39.8787 2C39.8261 2 39.7735 2 39.7208 2C39.6682 2 39.6155 2 39.5628 2C39.5101 2 39.4574 2 39.4046 2C39.3519 2 39.2991 2 39.2463 2C39.1935 2 39.1406 2 39.0878 2C39.0349 2 38.982 2 38.9291 2C38.8762 2 38.8232 2 38.7703 2C38.7173 2 38.6643 2 38.6113 2C38.5583 2 38.5052 2 38.4522 2C38.3991 2 38.346 2 38.2929 2C38.2398 2 38.1867 2 38.1335 2C38.0804 2 38.0272 2 37.974 2C37.9208 2 37.8675 2 37.8143 2C37.761 2 37.7078 2 37.6545 2C37.6012 2 37.5479 2 37.4945 2C37.4412 2 37.3878 2 37.3344 2C37.2811 2 37.2277 2 37.1742 2C37.1208 2 37.0674 2 37.0139 2C36.9604 2 36.907 2 36.8535 2C36.8 2 36.7464 2 36.6929 2C36.6394 2 36.5858 2 36.5322 2C36.4786 2 36.425 2 36.3714 2C36.3178 2 36.2641 2 36.2105 2C36.1568 2 36.1032 2 36.0495 2C35.9958 2 35.9421 2 35.8883 2C35.8346 2 35.7809 2 35.7271 2C35.6734 2 35.6196 2 35.5658 2C35.512 2 35.4582 2 35.4043 2C35.3505 2 35.2967 2 35.2428 2C35.189 2 35.1351 2 35.0812 2C35.0273 2 34.9734 2 34.9195 2C34.8656 2 34.8116 2 34.7577 2C34.7037 2 34.6498 2 34.5958 2C34.5418 2 34.4878 2 34.4338 2C34.3798 2 34.3258 2 34.2718 2C34.2177 2 34.1637 2 34.1096 2C34.0556 2 34.0015 2 33.9474 2C33.8933 2 33.8392 2 33.7851 2C33.731 2 33.6769 2 33.6228 2C33.5687 2 33.5145 2 33.4604 2C33.4062 2 33.3521 2 33.2979 2C33.2437 2 33.1895 2 33.1353 2C33.0811 2 33.0269 2 32.9727 2C32.9185 2 32.8643 2 32.8101 2C32.7558 2 32.7016 2 32.6473 2C32.5931 2 32.5388 2 32.4846 2C32.4303 2 32.376 2 32.3217 2C32.2674 2 32.2132 2 32.1589 2C32.1046 2 32.0502 2 31.9959 2C31.9416 2 31.8873 2 31.833 2C31.7786 2 31.7243 2 31.67 2C31.6156 2 31.5613 2 31.5069 2C31.4526 2 31.3982 2 31.3438 2C31.2895 2 31.2351 2 31.1807 2C31.1264 2 31.072 2 31.0176 2C30.9632 2 30.9088 2 30.8544 2C30.8 2 30.7456 2 30.6912 2C30.6368 2 30.5824 2 30.528 2C30.4736 2 30.4192 2 30.3648 2C30.3104 2 30.256 2 30.2015 2C30.1471 2 30.0927 2 30.0383 2C29.9838 2 29.9294 2 29.875 2C29.8206 2 29.7661 2 29.7117 2C29.6573 2 29.6028 2 29.5484 2C29.494 2 29.4395 2 29.3851 2C29.3307 2 29.2762 2 29.2218 2C29.1674 2 29.1129 2 29.0585 2C29.0041 2 28.9496 2 28.8952 2C28.8408 2 28.7863 2 28.7319 2C28.6775 2 28.6231 2 28.5686 2C28.5142 2 28.4598 2 28.4054 2C28.3509 2 28.2965 2 28.2421 2C28.1877 2 28.1333 2 28.0788 2C28.0244 2 27.97 2 27.9156 2C27.8612 2 27.8068 2 27.7524 2C27.698 2 27.6436 2 27.5892 2C27.5348 2 27.4805 2 27.4261 2C27.3717 2 27.3173 2 27.2629 2C27.2086 2 27.1542 2 27.0998 2C27.0455 2 26.9911 2 26.9368 2C26.8824 2 26.8281 2 26.7738 2C26.7194 2 26.6651 2 26.6108 2C26.5564 2 26.5021 2 26.4478 2C26.3935 2 26.3392 2 26.2849 2C26.2306 2 26.1763 2 26.1221 2C26.0678 2 26.0135 2 25.9593 2C25.905 2 25.8507 2 25.7965 2C25.7423 2 25.688 2 25.6338 2C25.5796 2 25.5254 2 25.4711 2C25.4169 2 25.3627 2 25.3086 2C25.2544 2 25.2002 2 25.146 2C25.0919 2 25.0377 2 24.9836 2C24.9294 2 24.8753 2 24.8212 2C24.7671 2 24.713 2 24.6589 2C24.6048 2 24.5507 2 24.4966 2C24.4425 2 24.3885 2 24.3344 2C24.2804 2 24.2263 2 24.1723 2C24.1183 2 24.0643 2 24.0103 2C23.9563 2 23.9023 2 23.8484 2C23.7944 2 23.7404 2 23.6865 2C23.6326 2 23.5786 2 23.5247 2C23.4708 2 23.4169 2 23.3631 2C23.3092 2 23.2553 2 23.2015 2C23.1476 2 23.0938 2 23.04 2C22.9862 2 22.9324 2 22.8786 2C22.8248 2 22.771 2 22.7173 2C22.6635 2 22.6098 2 22.5561 2C22.5024 2 22.4487 2 22.395 2C22.3413 2 22.2877 2 22.234 2C22.1804 2 22.1268 2 22.0732 2C22.0196 2 21.966 2 21.9124 2C21.8588 2 21.8053 2 21.7518 2C21.6982 2 21.6447 2 21.5912 2C21.5378 2 21.4843 2 21.4308 2C21.3774 2 21.324 2 21.2706 2C21.2171 2 21.1638 2 21.1104 2C21.057 2 21.0037 2 20.9504 2C20.897 2 20.8438 2 20.7905 2C20.7372 2 20.6839 2 20.6307 2C20.5775 2 20.5243 2 20.4711 2C20.4179 2 20.3647 2 20.3116 2C20.2585 2 20.2053 2 20.1522 2C20.0992 2 20.0461 2 19.993 2C19.94 2 19.887 2 19.834 2C19.781 2 19.728 2 19.6751 2C19.6221 2 19.5692 2 19.5163 2C19.4634 2 19.4105 2 19.3577 2C19.3049 2 19.252 2 19.1992 2C19.1465 2 19.0937 2 19.041 2C18.9882 2 18.9355 2 18.8828 2C18.8301 2 18.7775 2 18.7248 2C18.6722 2 18.6196 2 18.567 2C18.5145 2 18.4619 2 18.4094 2C18.3569 2 18.3044 2 18.2519 2C18.1995 2 18.1471 2 18.0947 2C18.0423 2 17.9899 2 17.9375 2C17.8852 2 17.8329 2 17.7806 2C17.7283 2 17.6761 2 17.6239 2C17.5716 2 17.5195 2 17.4673 2C17.4151 2 17.363 2 17.3109 2C17.2588 2 17.2068 2 17.1547 2C17.1027 2 17.0507 2 16.9987 2C16.9468 2 16.8948 2 16.8429 2C16.791 2 16.7391 2 16.6873 2C16.6355 2 16.5837 2 16.5319 2C16.4801 2 16.4284 2 16.3767 2C16.325 2 16.2733 2 16.2217 2C16.17 2 16.1184 2 16.0669 2C16.0153 2 15.9638 2 15.9123 2C15.8608 2 15.8093 2 15.7579 2C15.7065 2 15.6551 2 15.6038 2C15.5524 2 15.5011 2 15.4498 2C15.3985 2 15.3473 2 15.2961 2C15.2449 2 15.1937 2 15.1426 2C15.0915 2 15.0404 2 14.9893 2C14.9383 2 14.8872 2 14.8363 2C14.7853 2 14.7343 2 14.6834 2C14.6325 2 14.5817 2 14.5309 2C14.48 2 14.4292 2 14.3785 2C14.3278 2 14.2771 2 14.2264 2C14.1757 2 14.1251 2 14.0745 2C14.0239 2 13.9734 2 13.9229 2C13.8724 2 13.8219 2 13.7715 2C13.7211 2 13.6707 2 13.6204 2C13.57 2 13.5197 2 13.4695 2C13.4192 2 13.369 2 13.3188 2C13.2687 2 13.2185 2 13.1684 2C13.1184 2 13.0683 2 13.0183 2C12.9683 2 12.9184 2 12.8685 2C12.8186 2 12.7687 2 12.7189 2C12.669 2 12.6193 2 12.5695 2C12.5198 2 12.4701 2 12.4205 2C12.3708 2 12.3212 2 12.2717 2C12.2221 2 12.1726 2 12.1231 2C12.0737 2 12.0243 2 11.9749 2C11.9255 2 11.8762 2 11.8269 2C11.7777 2 11.7284 2 11.6792 2C11.6301 2 11.5809 2 11.5318 2C11.4828 2 11.4337 2 11.3847 2C11.3357 2 11.2868 2 11.2379 2C11.189 2 11.1402 2 11.0914 2C11.0426 2 10.9938 2 10.9451 2C10.8964 2 10.8478 2 10.7992 2C10.7506 2 10.702 2 10.6535 2C10.605 2 10.5566 2 10.5082 2C10.4598 2 10.4114 2 10.3631 2C10.3148 2 10.2666 2 10.2184 2C10.1702 2 10.122 2 10.074 2C10.0259 2 9.97782 2 9.92983 2C9.88184 2 9.83391 2 9.78603 2C9.73815 2 9.69032 2 9.64254 2C9.59476 2 9.54704 2 9.49937 2C9.45171 2 9.40409 2 9.35653 2C9.30897 2 9.26146 2 9.214 2C9.16655 2 9.11916 2 9.07181 2C9.02447 2 8.97718 2 8.92995 2C8.88271 2 8.83553 2 8.78841 2C8.74129 2 8.69422 2 8.64721 2C8.6002 2 8.55325 2 8.50635 2C8.45945 2 8.41261 2 8.36582 2C8.31904 2 8.27231 2 8.22564 2C8.17897 2 8.13235 2 8.0858 2C8.03925 2 7.99275 2 7.94631 2C7.89987 2 7.85349 2 7.80717 2C7.76085 2 7.71459 2 7.66839 2C7.62218 2 7.57603 2 7.52995 2C7.48386 2 7.43784 2 7.39188 2C7.34591 2 7.3 2 7.25416 2C7.20831 2 7.16253 2 7.11681 2C7.07108 2 7.02542 2 6.97982 2C6.93421 2 6.88867 2 6.84319 2C6.79771 2 6.7523 2 6.70695 2C6.66159 2 6.61629 2 6.57107 2C6.52583 2 6.48067 2 6.43556 2C6.39046 2 6.34541 2 6.30044 2C6.25546 2 6.21054 2 6.1657 2C6.12084 2 6.07605 2 6.03133 2C5.9866 2 5.94195 2 5.89735 2C5.85276 2 5.80823 2 5.76376 2C5.7193 2 5.6749 2 5.63056 2C5.58623 2 5.54196 2 5.49776 2C5.45355 2 5.40942 2 5.36535 2C5.32128 2 5.27728 2 5.23334 2C5.1894 2 5.14553 2 5.10172 2C5.05792 2 5.01418 2 4.97052 2C4.92685 2 4.88325 2 4.83971 2C4.79618 2 4.75272 2 4.70932 2C4.66592 2 4.6226 2 4.57934 2C4.53608 2 4.49289 2 4.44977 2C4.40665 2 4.36359 2 4.32061 2C4.27763 2 4.23472 2 4.19188 2C4.14903 2 4.10626 2 4.06356 2C4.02086 2 3.97823 2 3.93567 2C3.89311 2 3.85062 2 3.8082 2C3.76579 2 3.72344 2 3.68118 2C3.6389 2 3.59669 2 3.55457 2C3.51244 2 3.47038 2 3.4284 2C3.38641 2 3.3445 2 3.30266 2C3.26083 2 3.21906 2 3.17737 2C3.13567 2 3.09406 2 3.05251 2C3.01096 2 2.9695 2 2.9281 2C2.8867 2 2.84538 2 2.80414 2C2.76289 2 2.72172 2 2.68063 2C2.63953 2 2.5985 2 2.55756 2C2.51662 2 2.47575 2 2.43495 2C2.39416 2 2.35344 2 2.3128 2C2.27216 2 2.23159 2 2.19111 2C2.15062 2 2.11021 2 2.06988 2C2.02954 2 1.98929 2 1.9491 2C1.90893 2 1.86883 2 1.82881 2C1.78879 2 1.74884 2 1.70898 2C1.66911 2 1.62933 2 1.58962 2C1.54991 2 1.51028 2 1.47073 2C1.43119 2 1.39172 2 1.35233 2C1.31294 2 1.27363 2 1.23441 2C1.19518 2 1.15603 2 1.11696 2C1.07789 2 1.0389 2 1 2V0C1.0389 0 1.07789 0 1.11696 0C1.15603 0 1.19518 0 1.23441 0C1.27363 0 1.31294 0 1.35233 0C1.39172 0 1.43119 0 1.47073 0C1.51028 0 1.54991 0 1.58962 0C1.62933 0 1.66911 0 1.70898 0C1.74884 0 1.78879 0 1.82881 0C1.86883 0 1.90893 0 1.9491 0C1.98929 0 2.02954 0 2.06988 0C2.11021 0 2.15062 0 2.19111 0C2.23159 0 2.27216 0 2.3128 0C2.35344 0 2.39416 0 2.43495 0C2.47575 0 2.51662 0 2.55756 0C2.5985 0 2.63953 0 2.68063 0C2.72172 0 2.76289 0 2.80414 0C2.84538 0 2.8867 0 2.9281 0C2.9695 0 3.01096 0 3.05251 0C3.09406 0 3.13567 0 3.17737 0C3.21906 0 3.26083 0 3.30266 0C3.3445 0 3.38641 0 3.4284 0C3.47038 0 3.51244 0 3.55457 0C3.59669 0 3.6389 0 3.68118 0C3.72344 0 3.76579 0 3.8082 0C3.85062 0 3.89311 0 3.93567 0C3.97823 0 4.02086 0 4.06356 0C4.10626 0 4.14903 0 4.19188 0C4.23472 0 4.27763 0 4.32061 0C4.36359 0 4.40665 0 4.44977 0C4.49289 0 4.53608 0 4.57934 0C4.6226 0 4.66592 0 4.70932 0C4.75272 0 4.79618 0 4.83971 0C4.88325 0 4.92685 0 4.97052 0C5.01418 0 5.05792 0 5.10172 0C5.14553 0 5.1894 0 5.23334 0C5.27728 0 5.32128 0 5.36535 0C5.40942 0 5.45355 0 5.49776 0C5.54196 0 5.58623 0 5.63056 0C5.6749 0 5.7193 0 5.76376 0C5.80823 0 5.85276 0 5.89735 0C5.94195 0 5.9866 0 6.03133 0C6.07605 0 6.12084 0 6.1657 0C6.21054 0 6.25546 0 6.30044 0C6.34541 0 6.39046 0 6.43556 0C6.48067 0 6.52583 0 6.57107 0C6.61629 0 6.66159 0 6.70695 0C6.7523 0 6.79771 0 6.84319 0C6.88867 0 6.93421 0 6.97982 0C7.02542 0 7.07108 0 7.11681 0C7.16253 0 7.20831 0 7.25416 0C7.3 0 7.34591 0 7.39188 0C7.43784 0 7.48386 0 7.52995 0C7.57603 0 7.62218 0 7.66839 0C7.71459 0 7.76085 0 7.80717 0C7.85349 0 7.89987 0 7.94631 0C7.99275 0 8.03925 0 8.0858 0C8.13235 0 8.17897 0 8.22564 0C8.27231 0 8.31904 0 8.36582 0C8.41261 0 8.45945 0 8.50635 0C8.55325 0 8.6002 0 8.64721 0C8.69422 0 8.74129 0 8.78841 0C8.83553 0 8.88271 0 8.92995 0C8.97718 0 9.02447 0 9.07181 0C9.11916 0 9.16655 0 9.214 0C9.26146 0 9.30897 0 9.35653 0C9.40409 0 9.45171 0 9.49937 0C9.54704 0 9.59476 0 9.64254 0C9.69032 0 9.73815 0 9.78603 0C9.83391 0 9.88184 0 9.92983 0C9.97782 0 10.0259 0 10.074 0C10.122 0 10.1702 0 10.2184 0C10.2666 0 10.3148 0 10.3631 0C10.4114 0 10.4598 0 10.5082 0C10.5566 0 10.605 0 10.6535 0C10.702 0 10.7506 0 10.7992 0C10.8478 0 10.8964 0 10.9451 0C10.9938 0 11.0426 0 11.0914 0C11.1402 0 11.189 0 11.2379 0C11.2868 0 11.3357 0 11.3847 0C11.4337 0 11.4828 0 11.5318 0C11.5809 0 11.6301 0 11.6792 0C11.7284 0 11.7777 0 11.8269 0C11.8762 0 11.9255 0 11.9749 0C12.0243 0 12.0737 0 12.1231 0C12.1726 0 12.2221 0 12.2717 0C12.3212 0 12.3708 0 12.4205 0C12.4701 0 12.5198 0 12.5695 0C12.6193 0 12.669 0 12.7189 0C12.7687 0 12.8186 0 12.8685 0C12.9184 0 12.9683 0 13.0183 0C13.0683 0 13.1184 0 13.1684 0C13.2185 0 13.2687 0 13.3188 0C13.369 0 13.4192 0 13.4695 0C13.5197 0 13.57 0 13.6204 0C13.6707 0 13.7211 0 13.7715 0C13.8219 0 13.8724 0 13.9229 0C13.9734 0 14.0239 0 14.0745 0C14.1251 0 14.1757 0 14.2264 0C14.2771 0 14.3278 0 14.3785 0C14.4292 0 14.48 0 14.5309 0C14.5817 0 14.6325 0 14.6834 0C14.7343 0 14.7853 0 14.8363 0C14.8872 0 14.9383 0 14.9893 0C15.0404 0 15.0915 0 15.1426 0C15.1937 0 15.2449 0 15.2961 0C15.3473 0 15.3985 0 15.4498 0C15.5011 0 15.5524 0 15.6038 0C15.6551 0 15.7065 0 15.7579 0C15.8093 0 15.8608 0 15.9123 0C15.9638 0 16.0153 0 16.0669 0C16.1184 0 16.17 0 16.2217 0C16.2733 0 16.325 0 16.3767 0C16.4284 0 16.4801 0 16.5319 0C16.5837 0 16.6355 0 16.6873 0C16.7391 0 16.791 0 16.8429 0C16.8948 0 16.9468 0 16.9987 0C17.0507 0 17.1027 0 17.1547 0C17.2068 0 17.2588 0 17.3109 0C17.363 0 17.4151 0 17.4673 0C17.5195 0 17.5716 0 17.6239 0C17.6761 0 17.7283 0 17.7806 0C17.8329 0 17.8852 0 17.9375 0C17.9899 0 18.0423 0 18.0947 0C18.1471 0 18.1995 0 18.2519 0C18.3044 0 18.3569 0 18.4094 0C18.4619 0 18.5145 0 18.567 0C18.6196 0 18.6722 0 18.7248 0C18.7775 0 18.8301 0 18.8828 0C18.9355 0 18.9882 0 19.041 0C19.0937 0 19.1465 0 19.1992 0C19.252 0 19.3049 0 19.3577 0C19.4105 0 19.4634 0 19.5163 0C19.5692 0 19.6221 0 19.6751 0C19.728 0 19.781 0 19.834 0C19.887 0 19.94 0 19.993 0C20.0461 0 20.0992 0 20.1522 0C20.2053 0 20.2585 0 20.3116 0C20.3647 0 20.4179 0 20.4711 0C20.5243 0 20.5775 0 20.6307 0C20.6839 0 20.7372 0 20.7905 0C20.8438 0 20.897 0 20.9504 0C21.0037 0 21.057 0 21.1104 0C21.1638 0 21.2171 0 21.2706 0C21.324 0 21.3774 0 21.4308 0C21.4843 0 21.5378 0 21.5912 0C21.6447 0 21.6982 0 21.7518 0C21.8053 0 21.8588 0 21.9124 0C21.966 0 22.0196 0 22.0732 0C22.1268 0 22.1804 0 22.234 0C22.2877 0 22.3413 0 22.395 0C22.4487 0 22.5024 0 22.5561 0C22.6098 0 22.6635 0 22.7173 0C22.771 0 22.8248 0 22.8786 0C22.9324 0 22.9862 0 23.04 0C23.0938 0 23.1476 0 23.2015 0C23.2553 0 23.3092 0 23.3631 0C23.4169 0 23.4708 0 23.5247 0C23.5786 0 23.6326 0 23.6865 0C23.7404 0 23.7944 0 23.8484 0C23.9023 0 23.9563 0 24.0103 0C24.0643 0 24.1183 0 24.1723 0C24.2263 0 24.2804 0 24.3344 0C24.3885 0 24.4425 0 24.4966 0C24.5507 0 24.6048 0 24.6589 0C24.713 0 24.7671 0 24.8212 0C24.8753 0 24.9294 0 24.9836 0C25.0377 0 25.0919 0 25.146 0C25.2002 0 25.2544 0 25.3086 0C25.3627 0 25.4169 0 25.4711 0C25.5254 0 25.5796 0 25.6338 0C25.688 0 25.7423 0 25.7965 0C25.8507 0 25.905 0 25.9593 0C26.0135 0 26.0678 0 26.1221 0C26.1763 0 26.2306 0 26.2849 0C26.3392 0 26.3935 0 26.4478 0C26.5021 0 26.5564 0 26.6108 0C26.6651 0 26.7194 0 26.7738 0C26.8281 0 26.8824 0 26.9368 0C26.9911 0 27.0455 0 27.0998 0C27.1542 0 27.2086 0 27.2629 0C27.3173 0 27.3717 0 27.4261 0C27.4805 0 27.5348 0 27.5892 0C27.6436 0 27.698 0 27.7524 0C27.8068 0 27.8612 0 27.9156 0C27.97 0 28.0244 0 28.0788 0C28.1333 0 28.1877 0 28.2421 0C28.2965 0 28.3509 0 28.4054 0C28.4598 0 28.5142 0 28.5686 0C28.6231 0 28.6775 0 28.7319 0C28.7863 0 28.8408 0 28.8952 0C28.9496 0 29.0041 0 29.0585 0C29.1129 0 29.1674 0 29.2218 0C29.2762 0 29.3307 0 29.3851 0C29.4395 0 29.494 0 29.5484 0C29.6028 0 29.6573 0 29.7117 0C29.7661 0 29.8206 0 29.875 0C29.9294 0 29.9838 0 30.0383 0C30.0927 0 30.1471 0 30.2015 0C30.256 0 30.3104 0 30.3648 0C30.4192 0 30.4736 0 30.528 0C30.5824 0 30.6368 0 30.6912 0C30.7456 0 30.8 0 30.8544 0C30.9088 0 30.9632 0 31.0176 0C31.072 0 31.1264 0 31.1807 0C31.2351 0 31.2895 0 31.3438 0C31.3982 0 31.4526 0 31.5069 0C31.5613 0 31.6156 0 31.67 0C31.7243 0 31.7786 0 31.833 0C31.8873 0 31.9416 0 31.9959 0C32.0502 0 32.1046 0 32.1589 0C32.2132 0 32.2674 0 32.3217 0C32.376 0 32.4303 0 32.4846 0C32.5388 0 32.5931 0 32.6473 0C32.7016 0 32.7558 0 32.8101 0C32.8643 0 32.9185 0 32.9727 0C33.0269 0 33.0811 0 33.1353 0C33.1895 0 33.2437 0 33.2979 0C33.3521 0 33.4062 0 33.4604 0C33.5145 0 33.5687 0 33.6228 0C33.6769 0 33.731 0 33.7851 0C33.8392 0 33.8933 0 33.9474 0C34.0015 0 34.0556 0 34.1096 0C34.1637 0 34.2177 0 34.2718 0C34.3258 0 34.3798 0 34.4338 0C34.4878 0 34.5418 0 34.5958 0C34.6498 0 34.7037 0 34.7577 0C34.8116 0 34.8656 0 34.9195 0C34.9734 0 35.0273 0 35.0812 0C35.1351 0 35.189 0 35.2428 0C35.2967 0 35.3505 0 35.4043 0C35.4582 0 35.512 0 35.5658 0C35.6196 0 35.6734 0 35.7271 0C35.7809 0 35.8346 0 35.8883 0C35.9421 0 35.9958 0 36.0495 0C36.1032 0 36.1568 0 36.2105 0C36.2641 0 36.3178 0 36.3714 0C36.425 0 36.4786 0 36.5322 0C36.5858 0 36.6394 0 36.6929 0C36.7464 0 36.8 0 36.8535 0C36.907 0 36.9604 0 37.0139 0C37.0674 0 37.1208 0 37.1742 0C37.2277 0 37.2811 0 37.3344 0C37.3878 0 37.4412 0 37.4945 0C37.5479 0 37.6012 0 37.6545 0C37.7078 0 37.761 0 37.8143 0C37.8675 0 37.9208 0 37.974 0C38.0272 0 38.0804 0 38.1335 0C38.1867 0 38.2398 0 38.2929 0C38.346 0 38.3991 0 38.4522 0C38.5052 0 38.5583 0 38.6113 0C38.6643 0 38.7173 0 38.7703 0C38.8232 0 38.8762 0 38.9291 0C38.982 0 39.0349 0 39.0878 0C39.1406 0 39.1935 0 39.2463 0C39.2991 0 39.3519 0 39.4046 0C39.4574 0 39.5101 0 39.5628 0C39.6155 0 39.6682 0 39.7208 0C39.7735 0 39.8261 0 39.8787 0C39.9313 0 39.9839 0 40.0364 0C40.089 0 40.1415 0 40.1939 0C40.2464 0 40.2989 0 40.3513 0C40.4037 0 40.4561 0 40.5085 0C40.5608 0 40.6132 0 40.6655 0C40.7178 0 40.7701 0 40.8223 0C40.8745 0 40.9268 0 40.9789 0C41.0311 0 41.0833 0 41.1354 0C41.1875 0 41.2396 0 41.2917 0C41.3437 0 41.3957 0 41.4477 0C41.4997 0 41.5517 0 41.6036 0C41.6556 0 41.7074 0 41.7593 0C41.8112 0 41.863 0 41.9148 0C41.9666 0 42.0184 0 42.0701 0C42.1218 0 42.1735 0 42.2252 0C42.2768 0 42.3285 0 42.38 0C42.4316 0 42.4832 0 42.5347 0C42.5862 0 42.6377 0 42.6892 0C42.7406 0 42.792 0 42.8434 0C42.8948 0 42.9461 0 42.9974 0C43.0488 0 43.1 0 43.1513 0C43.2025 0 43.2537 0 43.3048 0C43.356 0 43.4071 0 43.4582 0C43.5093 0 43.5603 0 43.6113 0C43.6624 0 43.7133 0 43.7643 0C43.8152 0 43.8661 0 43.9169 0C43.9678 0 44.0186 0 44.0694 0C44.1202 0 44.1709 0 44.2216 0C44.2723 0 44.3229 0 44.3736 0C44.4242 0 44.4747 0 44.5253 0C44.5758 0 44.6263 0 44.6768 0C44.7272 0 44.7776 0 44.828 0C44.8784 0 44.9287 0 44.979 0C45.0293 0 45.0795 0 45.1297 0C45.1799 0 45.2301 0 45.2802 0C45.3303 0 45.3804 0 45.4304 0C45.4805 0 45.5304 0 45.5804 0C45.6303 0 45.6802 0 45.7301 0C45.7799 0 45.8298 0 45.8795 0C45.9293 0 45.979 0 46.0287 0C46.0784 0 46.128 0 46.1776 0C46.2272 0 46.2767 0 46.3262 0C46.3757 0 46.4252 0 46.4746 0C46.524 0 46.5733 0 46.6227 0C46.672 0 46.7212 0 46.7705 0C46.8197 0 46.8688 0 46.918 0C46.9671 0 47.0162 0 47.0652 0C47.1142 0 47.1632 0 47.2121 0C47.2611 0 47.31 0 47.3588 0C47.4076 0 47.4564 0 47.5051 0C47.5539 0 47.6026 0 47.6512 0C47.6998 0 47.7484 0 47.797 0C47.8455 0 47.894 0 47.9424 0C47.9909 0 48.0393 0 48.0876 0C48.1359 0 48.1842 0 48.2325 0C48.2807 0 48.3289 0 48.377 0C48.4251 0 48.4732 0 48.5212 0C48.5693 0 48.6173 0 48.6652 0C48.7131 0 48.761 0 48.8088 0C48.8566 0 48.9044 0 48.9521 0C48.9998 0 49.0474 0 49.095 0C49.1427 0 49.1902 0 49.2377 0C49.2852 0 49.3326 0 49.38 0C49.4274 0 49.4747 0 49.522 0C49.5693 0 49.6165 0 49.6637 0C49.7108 0 49.758 0 49.805 0C49.8521 0 49.8991 0 49.946 0C49.9929 0 50.0398 0 50.0867 0C50.1335 0 50.1803 0 50.227 0C50.2737 0 50.3203 0 50.3669 0C50.4135 0 50.4601 0 50.5066 0C50.553 0 50.5995 0 50.6458 0C50.6922 0 50.7385 0 50.7848 0C50.831 0 50.8772 0 50.9233 0C50.9695 0 51.0155 0 51.0616 0C51.1076 0 51.1535 0 51.1994 0C51.2453 0 51.2911 0 51.3369 0C51.3827 0 51.4284 0 51.474 0C51.5197 0 51.5653 0 51.6108 0C51.6563 0 51.7018 0 51.7472 0C51.7926 0 51.8379 0 51.8832 0C51.9285 0 51.9737 0 52.0189 0C52.064 0 52.1091 0 52.1541 0C52.1992 0 52.2441 0 52.289 0C52.3339 0 52.3788 0 52.4235 0C52.4683 0 52.513 0 52.5577 0C52.6023 0 52.6469 0 52.6914 0C52.7359 0 52.7804 0 52.8248 0C52.8691 0 52.9135 0 52.9577 0C53.002 0 53.0462 0 53.0903 0C53.1344 0 53.1785 0 53.2224 0C53.2664 0 53.3104 0 53.3542 0C53.3981 0 53.4419 0 53.4856 0C53.5293 0 53.573 0 53.6165 0C53.6601 0 53.7036 0 53.7471 0C53.7905 0 53.8339 0 53.8772 0C53.9205 0 53.9638 0 54.007 0C54.0501 0 54.0932 0 54.1363 0C54.1793 0 54.2223 0 54.2652 0C54.3081 0 54.3509 0 54.3937 0C54.4364 0 54.4791 0 54.5217 0C54.5643 0 54.6069 0 54.6493 0C54.6918 0 54.7342 0 54.7765 0C54.8189 0 54.8611 0 54.9033 0C54.9455 0 54.9876 0 55.0297 0C55.0717 0 55.1137 0 55.1556 0C55.1975 0 55.2393 0 55.281 0C55.3228 0 55.3644 0 55.406 0C55.4476 0 55.4892 0 55.5306 0C55.5721 0 55.6135 0 55.6548 0C55.6961 0 55.7373 0 55.7785 0C55.8196 0 55.8607 0 55.9017 0C55.9427 0 55.9836 0 56.0245 0C56.0653 0 56.1061 0 56.1468 0C56.1875 0 56.2281 0 56.2687 0C56.3092 0 56.3497 0 56.3901 0C56.4305 0 56.4708 0 56.511 0C56.5513 0 56.5914 0 56.6315 0C56.6716 0 56.7116 0 56.7515 0C56.7915 0 56.8313 0 56.8711 0C56.9108 0 56.9505 0 56.9901 0C57.0298 0 57.0693 0 57.1087 0C57.1482 0 57.1876 0 57.2268 0C57.2661 0 57.3053 0 57.3445 0C57.3836 0 57.4227 0 57.4616 0C57.5006 0 57.5395 0 57.5783 0C57.6171 0 57.6558 0 57.6945 0C57.7331 0 57.7717 0 57.8101 0C57.8486 0 57.887 0 57.9253 0C57.9636 0 58.0019 0 58.04 0C58.0782 0 58.1162 0 58.1542 0C58.1922 0 58.2301 0 58.2679 0C58.3057 0 58.3434 0 58.3811 0C58.4187 0 58.4563 0 58.4938 0C58.5312 0 58.5686 0 58.6059 0C58.6432 0 58.6805 0 58.7176 0C58.7547 0 58.7918 0 58.8287 0C58.8657 0 58.9026 0 58.9394 0C58.9762 0 59.0129 0 59.0495 0C59.0861 0 59.1226 0 59.1591 0C59.1955 0 59.2319 0 59.2681 0C59.3044 0 59.3406 0 59.3767 0C59.4127 0 59.4487 0 59.4847 0C59.5206 0 59.5564 0 59.5921 0C59.6279 0 59.6635 0 59.6991 0C59.7346 0 59.7701 0 59.8055 0C59.8408 0 59.8761 0 59.9113 0C59.9465 0 59.9816 0 60.0166 0C60.0517 0 60.0866 0 60.1214 0C60.1562 0 60.191 0 60.2256 0C60.2603 0 60.2948 0 60.3293 0C60.3638 0 60.3982 0 60.4324 0C60.4667 0 60.5009 0 60.535 0C60.5691 0 60.6031 0 60.637 0C60.6709 0 60.7047 0 60.7385 0C60.7722 0 60.8058 0 60.8394 0C60.8729 0 60.9063 0 60.9397 0C60.973 0 61.0063 0 61.0394 0C61.0726 0 61.1056 0 61.1386 0C61.1716 0 61.2044 0 61.2372 0C61.27 0 61.3027 0 61.3353 0C61.3678 0 61.4003 0 61.4327 0C61.4651 0 61.4974 0 61.5296 0C61.5618 0 61.5939 0 61.6259 0C61.6579 0 61.6898 0 61.7216 0C61.7534 0 61.7851 0 61.8167 0C61.8483 0 61.8798 0 61.9112 0C61.9426 0 61.974 0 62.0052 0C62.0364 0 62.0675 0 62.0985 0C62.1295 0 62.1604 0 62.1912 0C62.2221 0 62.2528 0 62.2834 0C62.314 0 62.3445 0 62.3749 0C62.4053 0 62.4356 0 62.4658 0C62.4961 0 62.5262 0 62.5562 0C62.5862 0 62.6161 0 62.6459 0C62.6757 0 62.7054 0 62.735 0C62.7646 0 62.7941 0 62.8235 0C62.8528 0 62.8821 0 62.9113 0C62.9405 0 62.9696 0 62.9986 0C63.0275 0 63.0564 0 63.0852 0C63.1139 0 63.1426 0 63.1712 0C63.1997 0 63.2282 0 63.2565 0C63.2849 0 63.3131 0 63.3412 0C63.3694 0 63.3974 0 63.4253 0C63.4533 0 63.4811 0 63.5088 0C63.5365 0 63.5641 0 63.5916 0C63.6191 0 63.6465 0 63.6738 0C63.7011 0 63.7282 0 63.7553 0C63.7824 0 63.8093 0 63.8362 0C63.8631 0 63.8898 0 63.9164 0C63.9431 0 63.9696 0 63.996 0C64.0224 0 64.0487 0 64.0749 0C64.1011 0 64.1272 0 64.1532 0C64.1792 0 64.2051 0 64.2308 0C64.2566 0 64.2822 0 64.3078 0C64.3333 0 64.3587 0 64.3841 0C64.4094 0 64.4346 0 64.4597 0C64.4848 0 64.5098 0 64.5346 0C64.5595 0 64.5843 0 64.6089 0C64.6336 0 64.6581 0 64.6825 0C64.7069 0 64.7312 0 64.7554 0C64.7796 0 64.8037 0 64.8277 0C64.8516 0 64.8755 0 64.8992 0C64.923 0 64.9466 0 64.9701 0C64.9936 0 65.017 0 65.0403 0C65.0636 0 65.0867 0 65.1098 0C65.1328 0 65.1558 0 65.1786 0C65.2014 0 65.2241 0 65.2467 0C65.2693 0 65.2918 0 65.3141 0C65.3365 0 65.3587 0 65.3808 0C65.4029 0 65.425 0 65.4468 0C65.4687 0 65.4905 0 65.5121 0C65.5338 0 65.5553 0 65.5767 0C65.5981 0 65.6194 0 65.6406 0C65.6618 0 65.6828 0 65.7038 0C65.7247 0 65.7455 0 65.7662 0C65.7869 0 65.8075 0 65.828 0C65.8484 0 65.8688 0 65.889 0C65.9092 0 65.9293 0 65.9493 0C65.9693 0 65.9891 0 66.0089 0C66.0286 0 66.0482 0 66.0677 0C66.0872 0 66.1065 0 66.1258 0C66.145 0 66.1642 0 66.1832 0C66.2022 0 66.2211 0 66.2398 0C66.2586 0 66.2772 0 66.2957 0C66.3142 0 66.3326 0 66.3509 0C66.3691 0 66.3873 0 66.4053 0C66.4233 0 66.4412 0 66.4589 0C66.4767 0 66.4943 0 66.5119 0C66.5294 0 66.5468 0 66.564 0C66.5813 0 66.5984 0 66.6154 0C66.6325 0 66.6493 0 66.6661 0C66.6829 0 66.6995 0 66.716 0C66.7325 0 66.7489 0 66.7651 0C66.7814 0 66.7975 0 66.8135 0C66.8295 0 66.8454 0 66.8611 0C66.8768 0 66.8925 0 66.9079 0C66.9234 0 66.9388 0 66.954 0C66.9692 0 66.9843 0 66.9993 0C67.0143 0 67.0291 0 67.0438 0C67.0585 0 67.0731 0 67.0875 0C67.102 0 67.1163 0 67.1305 0C67.1447 0 67.1587 0 67.1727 0C67.1866 0 67.2004 0 67.214 0C67.2277 0 67.2412 0 67.2546 0C67.268 0 67.2813 0 67.2944 0C67.3076 0 67.3206 0 67.3334 0C67.3463 0 67.359 0 67.3716 0C67.3842 0 67.3967 0 67.409 0C67.4214 0 67.4336 0 67.4456 0C67.4577 0 67.4696 0 67.4814 0C67.4932 0 67.5049 0 67.5164 0C67.528 0 67.5394 0 67.5506 0C67.5619 0 67.573 0 67.584 0C67.595 0 67.6058 0 67.6165 0V2Z" fill="white" fill-opacity="0.1"/>
</svg>
