<svg width="76" height="17" viewBox="0 0 76 17" fill="none" xmlns="http://www.w3.org/2000/svg">
<path d="M0.0158806 16C0.0158806 16.5523 0.463596 17 1.01588 17C1.56817 17 2.01588 16.5523 2.01588 16H0.0158806ZM1.01588 7.72414H2.01588V7.68727L2.01317 7.65049L1.01588 7.72414ZM75 2H76V0H75V2ZM2.01588 16V7.72414H0.0158806V16H2.01588ZM2.01317 7.65049C1.94242 6.69248 2.14153 5.24907 2.92643 4.07846C3.67001 2.96948 5.00526 2 7.4709 2V0C4.37529 0 2.40028 1.2719 1.26528 2.96464C0.171606 4.59576 -0.0761732 6.51442 0.0185961 7.79778L2.01317 7.65049ZM7.4709 2C7.48176 2 7.49276 2 7.5039 2C7.51504 2 7.52632 2 7.53773 2C7.54914 2 7.56069 2 7.57238 2C7.58406 2 7.59589 2 7.60785 2C7.61981 2 7.6319 2 7.64414 2C7.65637 2 7.66874 2 7.68124 2C7.69375 2 7.70639 2 7.71916 2C7.73194 2 7.74484 2 7.75789 2C7.77093 2 7.78411 2 7.79743 2C7.81074 2 7.82419 2 7.83777 2C7.85135 2 7.86507 2 7.87892 2C7.89277 2 7.90675 2 7.92086 2C7.93498 2 7.94923 2 7.96361 2C7.97799 2 7.9925 2 8.00715 2C8.02179 2 8.03657 2 8.05148 2C8.06639 2 8.08143 2 8.0966 2C8.11177 2 8.12708 2 8.14251 2C8.15795 2 8.17351 2 8.18921 2C8.2049 2 8.22073 2 8.23668 2C8.25264 2 8.26873 2 8.28494 2C8.30116 2 8.3175 2 8.33398 2C8.35045 2 8.36705 2 8.38378 2C8.40052 2 8.41738 2 8.43437 2C8.45135 2 8.46847 2 8.48572 2C8.50296 2 8.52033 2 8.53783 2C8.55533 2 8.57296 2 8.59072 2C8.60847 2 8.62635 2 8.64436 2C8.66237 2 8.6805 2 8.69876 2C8.71702 2 8.73541 2 8.75392 2C8.77243 2 8.79107 2 8.80983 2C8.8286 2 8.84748 2 8.8665 2C8.88551 2 8.90465 2 8.92391 2C8.94317 2 8.96256 2 8.98207 2C9.00158 2 9.02121 2 9.04097 2C9.06073 2 9.08061 2 9.10062 2C9.12062 2 9.14075 2 9.161 2C9.18125 2 9.20162 2 9.22212 2C9.24261 2 9.26323 2 9.28397 2C9.30471 2 9.32557 2 9.34655 2C9.36753 2 9.38864 2 9.40986 2C9.43108 2 9.45243 2 9.4739 2C9.49536 2 9.51695 2 9.53866 2C9.56036 2 9.58219 2 9.60413 2C9.62608 2 9.64815 2 9.67033 2C9.69252 2 9.71482 2 9.73724 2C9.75967 2 9.78221 2 9.80487 2C9.82753 2 9.85031 2 9.8732 2C9.8961 2 9.91911 2 9.94224 2C9.96538 2 9.98863 2 10.012 2C10.0354 2 10.0588 2 10.0824 2C10.106 2 10.1298 2 10.1536 2C10.1774 2 10.2014 2 10.2254 2C10.2495 2 10.2737 2 10.298 2C10.3223 2 10.3467 2 10.3712 2C10.3957 2 10.4204 2 10.4451 2C10.4699 2 10.4948 2 10.5197 2C10.5447 2 10.5698 2 10.595 2C10.6202 2 10.6456 2 10.671 2C10.6964 2 10.722 2 10.7477 2C10.7733 2 10.7991 2 10.825 2C10.8509 2 10.8769 2 10.903 2C10.9291 2 10.9553 2 10.9817 2C11.008 2 11.0345 2 11.061 2C11.0876 2 11.1142 2 11.141 2C11.1678 2 11.1947 2 11.2217 2C11.2487 2 11.2758 2 11.303 2C11.3303 2 11.3576 2 11.385 2C11.4125 2 11.44 2 11.4677 2C11.4953 2 11.5231 2 11.551 2C11.5788 2 11.6068 2 11.6349 2C11.663 2 11.6912 2 11.7195 2C11.7478 2 11.7762 2 11.8048 2C11.8333 2 11.8619 2 11.8907 2C11.9194 2 11.9482 2 11.9772 2C12.0061 2 12.0352 2 12.0644 2C12.0935 2 12.1228 2 12.1522 2C12.1815 2 12.211 2 12.2406 2C12.2702 2 12.2999 2 12.3297 2C12.3594 2 12.3893 2 12.4193 2C12.4493 2 12.4795 2 12.5097 2C12.5399 2 12.5702 2 12.6006 2C12.631 2 12.6615 2 12.6922 2C12.7228 2 12.7535 2 12.7843 2C12.8152 2 12.8461 2 12.8771 2C12.9082 2 12.9393 2 12.9705 2C13.0018 2 13.0331 2 13.0645 2C13.096 2 13.1275 2 13.1591 2C13.1908 2 13.2225 2 13.2544 2C13.2862 2 13.3182 2 13.3502 2C13.3822 2 13.4144 2 13.4466 2C13.4789 2 13.5112 2 13.5436 2C13.5761 2 13.6086 2 13.6412 2C13.6739 2 13.7066 2 13.7394 2C13.7723 2 13.8052 2 13.8382 2C13.8713 2 13.9044 2 13.9376 2C13.9708 2 14.0042 2 14.0376 2C14.071 2 14.1045 2 14.1381 2C14.1717 2 14.2054 2 14.2392 2C14.273 2 14.3069 2 14.3409 2C14.3749 2 14.409 2 14.4432 2C14.4774 2 14.5117 2 14.546 2C14.5804 2 14.6149 2 14.6494 2C14.684 2 14.7187 2 14.7534 2C14.7882 2 14.823 2 14.858 2C14.8929 2 14.9279 2 14.963 2C14.9982 2 15.0334 2 15.0687 2C15.104 2 15.1394 2 15.1749 2C15.2104 2 15.246 2 15.2817 2C15.3173 2 15.3531 2 15.389 2C15.4248 2 15.4608 2 15.4968 2C15.5329 2 15.569 2 15.6052 2C15.6415 2 15.6778 2 15.7142 2C15.7506 2 15.7871 2 15.8237 2C15.8603 2 15.8969 2 15.9337 2C15.9705 2 16.0073 2 16.0442 2C16.0812 2 16.1182 2 16.1553 2C16.1924 2 16.2297 2 16.2669 2C16.3042 2 16.3416 2 16.3791 2C16.4166 2 16.4541 2 16.4918 2C16.5294 2 16.5671 2 16.6049 2C16.6428 2 16.6807 2 16.7186 2C16.7566 2 16.7947 2 16.8329 2C16.871 2 16.9093 2 16.9476 2C16.9859 2 17.0244 2 17.0629 2C17.1014 2 17.1399 2 17.1786 2C17.2173 2 17.256 2 17.2949 2C17.3337 2 17.3726 2 17.4116 2C17.4506 2 17.4897 2 17.5289 2C17.5681 2 17.6073 2 17.6467 2C17.686 2 17.7254 2 17.7649 2C17.8044 2 17.844 2 17.8837 2C17.9233 2 17.9631 2 18.0029 2C18.0428 2 18.0827 2 18.1227 2C18.1626 2 18.2027 2 18.2429 2C18.283 2 18.3233 2 18.3636 2C18.4039 2 18.4443 2 18.4847 2C18.5252 2 18.5658 2 18.6064 2C18.647 2 18.6877 2 18.7285 2C18.7693 2 18.8102 2 18.8511 2C18.8921 2 18.9331 2 18.9742 2C19.0153 2 19.0565 2 19.0978 2C19.139 2 19.1803 2 19.2218 2C19.2632 2 19.3047 2 19.3462 2C19.3878 2 19.4294 2 19.4712 2C19.5129 2 19.5547 2 19.5965 2C19.6384 2 19.6804 2 19.7224 2C19.7644 2 19.8065 2 19.8487 2C19.8908 2 19.9331 2 19.9754 2C20.0177 2 20.0601 2 20.1026 2C20.1451 2 20.1876 2 20.2302 2C20.2728 2 20.3155 2 20.3583 2C20.401 2 20.4439 2 20.4868 2C20.5297 2 20.5727 2 20.6157 2C20.6588 2 20.7019 2 20.7451 2C20.7883 2 20.8316 2 20.8749 2C20.9183 2 20.9617 2 21.0052 2C21.0486 2 21.0922 2 21.1358 2C21.1795 2 21.2231 2 21.2669 2C21.3107 2 21.3545 2 21.3984 2C21.4423 2 21.4863 2 21.5303 2C21.5744 2 21.6185 2 21.6627 2C21.7069 2 21.7511 2 21.7954 2C21.8398 2 21.8842 2 21.9286 2C21.9731 2 22.0176 2 22.0622 2C22.1068 2 22.1514 2 22.1962 2C22.2409 2 22.2857 2 22.3305 2C22.3754 2 22.4203 2 22.4653 2C22.5103 2 22.5554 2 22.6005 2C22.6456 2 22.6908 2 22.7361 2C22.7813 2 22.8266 2 22.872 2C22.9174 2 22.9629 2 23.0084 2C23.0539 2 23.0995 2 23.1451 2C23.1908 2 23.2365 2 23.2822 2C23.328 2 23.3739 2 23.4198 2C23.4657 2 23.5116 2 23.5576 2C23.6037 2 23.6498 2 23.6959 2C23.7421 2 23.7883 2 23.8345 2C23.8808 2 23.9272 2 23.9736 2C24.0199 2 24.0664 2 24.1129 2C24.1595 2 24.206 2 24.2527 2C24.2993 2 24.346 2 24.3928 2C24.4395 2 24.4864 2 24.5333 2C24.5801 2 24.6271 2 24.6741 2C24.7211 2 24.7681 2 24.8153 2C24.8624 2 24.9096 2 24.9568 2C25.004 2 25.0513 2 25.0987 2C25.146 2 25.1935 2 25.2409 2C25.2884 2 25.3359 2 25.3835 2C25.4311 2 25.4787 2 25.5264 2C25.5741 2 25.6219 2 25.6697 2C25.7175 2 25.7654 2 25.8133 2C25.8612 2 25.9092 2 25.9572 2C26.0053 2 26.0534 2 26.1015 2C26.1497 2 26.1979 2 26.2461 2C26.2944 2 26.3427 2 26.391 2C26.4394 2 26.4878 2 26.5363 2C26.5848 2 26.6333 2 26.6819 2C26.7305 2 26.7791 2 26.8278 2C26.8765 2 26.9252 2 26.974 2C27.0228 2 27.0716 2 27.1205 2C27.1694 2 27.2184 2 27.2674 2C27.3164 2 27.3654 2 27.4145 2C27.4636 2 27.5128 2 27.562 2C27.6112 2 27.6604 2 27.7097 2C27.759 2 27.8084 2 27.8578 2C27.9072 2 27.9567 2 28.0062 2C28.0557 2 28.1052 2 28.1548 2C28.2044 2 28.2541 2 28.3038 2C28.3535 2 28.4032 2 28.453 2C28.5028 2 28.5527 2 28.6026 2C28.6524 2 28.7024 2 28.7524 2C28.8024 2 28.8524 2 28.9025 2C28.9526 2 29.0027 2 29.0529 2C29.103 2 29.1533 2 29.2035 2C29.2538 2 29.3041 2 29.3545 2C29.4048 2 29.4552 2 29.5057 2C29.5561 2 29.6066 2 29.6572 2C29.7077 2 29.7583 2 29.8089 2C29.8596 2 29.9102 2 29.9609 2C30.0117 2 30.0624 2 30.1132 2C30.164 2 30.2149 2 30.2658 2C30.3167 2 30.3676 2 30.4186 2C30.4695 2 30.5206 2 30.5716 2C30.6227 2 30.6738 2 30.7249 2C30.7761 2 30.8273 2 30.8785 2C30.9297 2 30.981 2 31.0323 2C31.0836 2 31.1349 2 31.1863 2C31.2377 2 31.2892 2 31.3406 2C31.3921 2 31.4436 2 31.4952 2C31.5467 2 31.5983 2 31.6499 2C31.7016 2 31.7532 2 31.8049 2C31.8566 2 31.9084 2 31.9602 2C32.012 2 32.0638 2 32.1156 2C32.1675 2 32.2194 2 32.2713 2C32.3233 2 32.3752 2 32.4272 2C32.4793 2 32.5313 2 32.5834 2C32.6355 2 32.6876 2 32.7397 2C32.7919 2 32.8441 2 32.8963 2C32.9485 2 33.0008 2 33.0531 2C33.1054 2 33.1577 2 33.2101 2C33.2625 2 33.3149 2 33.3673 2C33.4197 2 33.4722 2 33.5247 2C33.5772 2 33.6298 2 33.6823 2C33.7349 2 33.7875 2 33.8402 2C33.8928 2 33.9455 2 33.9982 2C34.0509 2 34.1036 2 34.1564 2C34.2092 2 34.262 2 34.3148 2C34.3676 2 34.4205 2 34.4734 2C34.5263 2 34.5792 2 34.6322 2C34.6851 2 34.7381 2 34.7912 2C34.8442 2 34.8972 2 34.9503 2C35.0034 2 35.0565 2 35.1096 2C35.1628 2 35.216 2 35.2691 2C35.3223 2 35.3756 2 35.4288 2C35.4821 2 35.5354 2 35.5887 2C35.642 2 35.6954 2 35.7487 2C35.8021 2 35.8555 2 35.9089 2C35.9624 2 36.0158 2 36.0693 2C36.1228 2 36.1763 2 36.2298 2C36.2833 2 36.3369 2 36.3905 2C36.4441 2 36.4977 2 36.5513 2C36.605 2 36.6586 2 36.7123 2C36.766 2 36.8197 2 36.8735 2C36.9272 2 36.981 2 37.0348 2C37.0886 2 37.1424 2 37.1962 2C37.2501 2 37.3039 2 37.3578 2C37.4117 2 37.4656 2 37.5195 2C37.5735 2 37.6274 2 37.6814 2C37.7354 2 37.7894 2 37.8434 2C37.8974 2 37.9515 2 38.0056 2C38.0596 2 38.1137 2 38.1678 2C38.2219 2 38.2761 2 38.3302 2C38.3844 2 38.4385 2 38.4927 2C38.5469 2 38.6012 2 38.6554 2C38.7096 2 38.7639 2 38.8182 2C38.8724 2 38.9267 2 38.981 2C39.0354 2 39.0897 2 39.1441 2C39.1984 2 39.2528 2 39.3072 2C39.3616 2 39.416 2 39.4704 2C39.5248 2 39.5793 2 39.6337 2C39.6882 2 39.7427 2 39.7972 2C39.8517 2 39.9062 2 39.9607 2C40.0152 2 40.0698 2 40.1244 2C40.1789 2 40.2335 2 40.2881 2C40.3427 2 40.3973 2 40.4519 2C40.5066 2 40.5612 2 40.6159 2C40.6705 2 40.7252 2 40.7799 2C40.8346 2 40.8893 2 40.944 2C40.9987 2 41.0534 2 41.1082 2C41.1629 2 41.2177 2 41.2725 2C41.3272 2 41.382 2 41.4368 2C41.4916 2 41.5464 2 41.6012 2C41.6561 2 41.7109 2 41.7657 2C41.8206 2 41.8755 2 41.9303 2C41.9852 2 42.0401 2 42.095 2C42.1499 2 42.2048 2 42.2597 2C42.3146 2 42.3695 2 42.4245 2C42.4794 2 42.5343 2 42.5893 2C42.6442 2 42.6992 2 42.7542 2C42.8092 2 42.8641 2 42.9191 2C42.9741 2 43.0291 2 43.0841 2C43.1392 2 43.1942 2 43.2492 2C43.3042 2 43.3593 2 43.4143 2C43.4694 2 43.5244 2 43.5795 2C43.6345 2 43.6896 2 43.7447 2C43.7997 2 43.8548 2 43.9099 2C43.965 2 44.0201 2 44.0752 2C44.1303 2 44.1854 2 44.2405 2C44.2956 2 44.3507 2 44.4058 2C44.4609 2 44.5161 2 44.5712 2C44.6263 2 44.6815 2 44.7366 2C44.7917 2 44.8469 2 44.902 2C44.9572 2 45.0123 2 45.0675 2C45.1226 2 45.1778 2 45.233 2C45.2881 2 45.3433 2 45.3984 2C45.4536 2 45.5088 2 45.5639 2C45.6191 2 45.6743 2 45.7295 2C45.7846 2 45.8398 2 45.895 2C45.9502 2 46.0053 2 46.0605 2C46.1157 2 46.1709 2 46.2261 2C46.2812 2 46.3364 2 46.3916 2C46.4468 2 46.502 2 46.5571 2C46.6123 2 46.6675 2 46.7227 2C46.7778 2 46.833 2 46.8882 2C46.9434 2 46.9985 2 47.0537 2C47.1089 2 47.1641 2 47.2192 2C47.2744 2 47.3296 2 47.3847 2C47.4399 2 47.4951 2 47.5502 2C47.6054 2 47.6605 2 47.7157 2C47.7708 2 47.826 2 47.8811 2C47.9363 2 47.9914 2 48.0465 2C48.1017 2 48.1568 2 48.2119 2C48.2671 2 48.3222 2 48.3773 2C48.4324 2 48.4875 2 48.5426 2C48.5977 2 48.6528 2 48.7079 2C48.763 2 48.8181 2 48.8732 2C48.9283 2 48.9833 2 49.0384 2C49.0935 2 49.1485 2 49.2036 2C49.2586 2 49.3137 2 49.3687 2C49.4237 2 49.4788 2 49.5338 2C49.5888 2 49.6438 2 49.6988 2C49.7538 2 49.8088 2 49.8638 2C49.9188 2 49.9738 2 50.0288 2C50.0837 2 50.1387 2 50.1936 2C50.2486 2 50.3035 2 50.3584 2C50.4134 2 50.4683 2 50.5232 2C50.5781 2 50.633 2 50.6879 2C50.7428 2 50.7976 2 50.8525 2C50.9074 2 50.9622 2 51.0171 2C51.0719 2 51.1267 2 51.1815 2C51.2363 2 51.2911 2 51.3459 2C51.4007 2 51.4555 2 51.5103 2C51.565 2 51.6198 2 51.6745 2C51.7292 2 51.7839 2 51.8386 2C51.8934 2 51.948 2 52.0027 2C52.0574 2 52.1121 2 52.1667 2C52.2214 2 52.276 2 52.3306 2C52.3852 2 52.4398 2 52.4944 2C52.549 2 52.6036 2 52.6581 2C52.7127 2 52.7672 2 52.8217 2C52.8762 2 52.9307 2 52.9852 2C53.0397 2 53.0942 2 53.1486 2C53.2031 2 53.2575 2 53.3119 2C53.3663 2 53.4207 2 53.4751 2C53.5295 2 53.5838 2 53.6382 2C53.6925 2 53.7468 2 53.8011 2C53.8554 2 53.9097 2 53.964 2C54.0182 2 54.0725 2 54.1267 2C54.1809 2 54.2351 2 54.2893 2C54.3435 2 54.3976 2 54.4518 2C54.5059 2 54.56 2 54.6141 2C54.6682 2 54.7223 2 54.7763 2C54.8304 2 54.8844 2 54.9384 2C54.9924 2 55.0464 2 55.1004 2C55.1543 2 55.2083 2 55.2622 2C55.3161 2 55.37 2 55.4239 2C55.4777 2 55.5316 2 55.5854 2C55.6392 2 55.693 2 55.7468 2C55.8006 2 55.8543 2 55.908 2C55.9617 2 56.0154 2 56.0691 2C56.1228 2 56.1764 2 56.23 2C56.2837 2 56.3373 2 56.3908 2C56.4444 2 56.4979 2 56.5515 2C56.605 2 56.6585 2 56.7119 2C56.7654 2 56.8188 2 56.8722 2C56.9256 2 56.979 2 57.0323 2C57.0857 2 57.139 2 57.1923 2C57.2456 2 57.2989 2 57.3521 2C57.4053 2 57.4585 2 57.5117 2C57.5649 2 57.618 2 57.6712 2C57.7243 2 57.7774 2 57.8304 2C57.8835 2 57.9365 2 57.9895 2C58.0425 2 58.0955 2 58.1484 2C58.2013 2 58.2543 2 58.3071 2C58.36 2 58.4128 2 58.4656 2C58.5185 2 58.5712 2 58.624 2C58.6767 2 58.7294 2 58.7821 2C58.8348 2 58.8874 2 58.9401 2C58.9927 2 59.0453 2 59.0978 2C59.1503 2 59.2029 2 59.2553 2C59.3078 2 59.3603 2 59.4127 2C59.4651 2 59.5175 2 59.5698 2C59.6221 2 59.6744 2 59.7267 2C59.779 2 59.8312 2 59.8834 2C59.9356 2 59.9878 2 60.0399 2C60.092 2 60.1441 2 60.1962 2C60.2482 2 60.3003 2 60.3522 2C60.4042 2 60.4562 2 60.5081 2C60.56 2 60.6118 2 60.6637 2C60.7155 2 60.7673 2 60.8191 2C60.8708 2 60.9225 2 60.9742 2C61.0259 2 61.0775 2 61.1291 2C61.1807 2 61.2323 2 61.2838 2C61.3353 2 61.3868 2 61.4382 2C61.4897 2 61.5411 2 61.5924 2C61.6438 2 61.6951 2 61.7464 2C61.7977 2 61.8489 2 61.9001 2C61.9513 2 62.0024 2 62.0536 2C62.1047 2 62.1557 2 62.2068 2C62.2578 2 62.3088 2 62.3597 2C62.4107 2 62.4616 2 62.5124 2C62.5633 2 62.6141 2 62.6649 2C62.7156 2 62.7664 2 62.817 2C62.8677 2 62.9184 2 62.969 2C63.0196 2 63.0701 2 63.1206 2C63.1711 2 63.2216 2 63.272 2C63.3224 2 63.3728 2 63.4231 2C63.4734 2 63.5237 2 63.5739 2C63.6242 2 63.6743 2 63.7245 2C63.7746 2 63.8247 2 63.8748 2C63.9248 2 63.9748 2 64.0248 2C64.0747 2 64.1246 2 64.1745 2C64.2243 2 64.2741 2 64.3239 2C64.3736 2 64.4234 2 64.473 2C64.5227 2 64.5723 2 64.6219 2C64.6714 2 64.7209 2 64.7704 2C64.8199 2 64.8693 2 64.9187 2C64.968 2 65.0173 2 65.0666 2C65.1159 2 65.1651 2 65.2142 2C65.2634 2 65.3125 2 65.3616 2C65.4106 2 65.4597 2 65.5086 2C65.5576 2 65.6065 2 65.6553 2C65.7042 2 65.753 2 65.8018 2C65.8505 2 65.8992 2 65.9478 2C65.9965 2 66.0451 2 66.0936 2C66.1422 2 66.1906 2 66.2391 2C66.2875 2 66.3359 2 66.3842 2C66.4325 2 66.4808 2 66.529 2C66.5772 2 66.6254 2 66.6735 2C66.7216 2 66.7696 2 66.8176 2C66.8656 2 66.9135 2 66.9614 2C67.0093 2 67.0571 2 67.1049 2C67.1527 2 67.2004 2 67.248 2C67.2957 2 67.3433 2 67.3908 2C67.4384 2 67.4858 2 67.5333 2C67.5807 2 67.6281 2 67.6754 2C67.7227 2 67.7699 2 67.8171 2C67.8643 2 67.9115 2 67.9585 2C68.0056 2 68.0526 2 68.0996 2C68.1465 2 68.1934 2 68.2403 2C68.2871 2 68.3339 2 68.3806 2C68.4273 2 68.474 2 68.5206 2C68.5672 2 68.6137 2 68.6602 2C68.7066 2 68.7531 2 68.7994 2C68.8457 2 68.892 2 68.9383 2C68.9845 2 69.0307 2 69.0768 2C69.1229 2 69.1689 2 69.2149 2C69.2609 2 69.3068 2 69.3526 2C69.3985 2 69.4443 2 69.49 2C69.5357 2 69.5814 2 69.627 2C69.6725 2 69.7181 2 69.7635 2C69.809 2 69.8544 2 69.8997 2C69.9451 2 69.9904 2 70.0356 2C70.0808 2 70.1259 2 70.171 2C70.216 2 70.2611 2 70.306 2C70.3509 2 70.3958 2 70.4406 2C70.4854 2 70.5302 2 70.5749 2C70.6195 2 70.6641 2 70.7087 2C70.7532 2 70.7977 2 70.8421 2C70.8865 2 70.9308 2 70.9751 2C71.0194 2 71.0636 2 71.1077 2C71.1518 2 71.1959 2 71.2399 2C71.2839 2 71.3278 2 71.3716 2C71.4155 2 71.4593 2 71.503 2C71.5467 2 71.5903 2 71.6339 2C71.6775 2 71.721 2 71.7644 2C71.8078 2 71.8512 2 71.8945 2C71.9378 2 71.981 2 72.0241 2C72.0673 2 72.1103 2 72.1533 2C72.1963 2 72.2392 2 72.2821 2C72.325 2 72.3677 2 72.4104 2C72.4531 2 72.4958 2 72.5383 2C72.5809 2 72.6234 2 72.6658 2C72.7082 2 72.7505 2 72.7928 2C72.8351 2 72.8773 2 72.9194 2C72.9615 2 73.0035 2 73.0455 2C73.0874 2 73.1293 2 73.1712 2C73.213 2 73.2547 2 73.2964 2C73.338 2 73.3796 2 73.4211 2C73.4626 2 73.504 2 73.5454 2C73.5867 2 73.628 2 73.6692 2C73.7104 2 73.7515 2 73.7926 2C73.8336 2 73.8746 2 73.9155 2C73.9564 2 73.9972 2 74.0379 2C74.0786 2 74.1193 2 74.1598 2C74.2004 2 74.2409 2 74.2813 2C74.3217 2 74.3621 2 74.4023 2C74.4426 2 74.4827 2 74.5228 2C74.5629 2 74.6029 2 74.6428 2C74.6828 2 74.7226 2 74.7624 2C74.8022 2 74.8418 2 74.8814 2C74.921 2 74.9606 2 75 2V0C74.9606 0 74.921 0 74.8814 0C74.8418 0 74.8022 0 74.7624 0C74.7226 0 74.6828 0 74.6428 0C74.6029 0 74.5629 0 74.5228 0C74.4827 0 74.4426 0 74.4023 0C74.3621 0 74.3217 0 74.2813 0C74.2409 0 74.2004 0 74.1598 0C74.1193 0 74.0786 0 74.0379 0C73.9972 0 73.9564 0 73.9155 0C73.8746 0 73.8336 0 73.7926 0C73.7515 0 73.7104 0 73.6692 0C73.628 0 73.5867 0 73.5454 0C73.504 0 73.4626 0 73.4211 0C73.3796 0 73.338 0 73.2964 0C73.2547 0 73.213 0 73.1712 0C73.1293 0 73.0874 0 73.0455 0C73.0035 0 72.9615 0 72.9194 0C72.8773 0 72.8351 0 72.7928 0C72.7505 0 72.7082 0 72.6658 0C72.6234 0 72.5809 0 72.5383 0C72.4958 0 72.4531 0 72.4104 0C72.3677 0 72.325 0 72.2821 0C72.2392 0 72.1963 0 72.1533 0C72.1103 0 72.0673 0 72.0241 0C71.981 0 71.9378 0 71.8945 0C71.8512 0 71.8078 0 71.7644 0C71.721 0 71.6775 0 71.6339 0C71.5903 0 71.5467 0 71.503 0C71.4593 0 71.4155 0 71.3716 0C71.3278 0 71.2839 0 71.2399 0C71.1959 0 71.1518 0 71.1077 0C71.0636 0 71.0194 0 70.9751 0C70.9308 0 70.8865 0 70.8421 0C70.7977 0 70.7532 0 70.7087 0C70.6641 0 70.6195 0 70.5749 0C70.5302 0 70.4854 0 70.4406 0C70.3958 0 70.3509 0 70.306 0C70.2611 0 70.216 0 70.171 0C70.1259 0 70.0808 0 70.0356 0C69.9904 0 69.9451 0 69.8997 0C69.8544 0 69.809 0 69.7635 0C69.7181 0 69.6725 0 69.627 0C69.5814 0 69.5357 0 69.49 0C69.4443 0 69.3985 0 69.3526 0C69.3068 0 69.2609 0 69.2149 0C69.1689 0 69.1229 0 69.0768 0C69.0307 0 68.9845 0 68.9383 0C68.892 0 68.8457 0 68.7994 0C68.7531 0 68.7066 0 68.6602 0C68.6137 0 68.5672 0 68.5206 0C68.474 0 68.4273 0 68.3806 0C68.3339 0 68.2871 0 68.2403 0C68.1934 0 68.1465 0 68.0996 0C68.0526 0 68.0056 0 67.9585 0C67.9115 0 67.8643 0 67.8171 0C67.7699 0 67.7227 0 67.6754 0C67.6281 0 67.5807 0 67.5333 0C67.4858 0 67.4384 0 67.3908 0C67.3433 0 67.2957 0 67.248 0C67.2004 0 67.1527 0 67.1049 0C67.0571 0 67.0093 0 66.9614 0C66.9135 0 66.8656 0 66.8176 0C66.7696 0 66.7216 0 66.6735 0C66.6254 0 66.5772 0 66.529 0C66.4808 0 66.4325 0 66.3842 0C66.3359 0 66.2875 0 66.2391 0C66.1906 0 66.1422 0 66.0936 0C66.0451 0 65.9965 0 65.9478 0C65.8992 0 65.8505 0 65.8018 0C65.753 0 65.7042 0 65.6553 0C65.6065 0 65.5576 0 65.5086 0C65.4597 0 65.4106 0 65.3616 0C65.3125 0 65.2634 0 65.2142 0C65.1651 0 65.1159 0 65.0666 0C65.0173 0 64.968 0 64.9187 0C64.8693 0 64.8199 0 64.7704 0C64.7209 0 64.6714 0 64.6219 0C64.5723 0 64.5227 0 64.473 0C64.4234 0 64.3736 0 64.3239 0C64.2741 0 64.2243 0 64.1745 0C64.1246 0 64.0747 0 64.0248 0C63.9748 0 63.9248 0 63.8748 0C63.8247 0 63.7746 0 63.7245 0C63.6743 0 63.6242 0 63.5739 0C63.5237 0 63.4734 0 63.4231 0C63.3728 0 63.3224 0 63.272 0C63.2216 0 63.1711 0 63.1206 0C63.0701 0 63.0196 0 62.969 0C62.9184 0 62.8677 0 62.817 0C62.7664 0 62.7156 0 62.6649 0C62.6141 0 62.5633 0 62.5124 0C62.4616 0 62.4107 0 62.3597 0C62.3088 0 62.2578 0 62.2068 0C62.1557 0 62.1047 0 62.0536 0C62.0024 0 61.9513 0 61.9001 0C61.8489 0 61.7977 0 61.7464 0C61.6951 0 61.6438 0 61.5924 0C61.5411 0 61.4897 0 61.4382 0C61.3868 0 61.3353 0 61.2838 0C61.2323 0 61.1807 0 61.1291 0C61.0775 0 61.0259 0 60.9742 0C60.9225 0 60.8708 0 60.8191 0C60.7673 0 60.7155 0 60.6637 0C60.6118 0 60.56 0 60.5081 0C60.4562 0 60.4042 0 60.3522 0C60.3003 0 60.2482 0 60.1962 0C60.1441 0 60.092 0 60.0399 0C59.9878 0 59.9356 0 59.8834 0C59.8312 0 59.779 0 59.7267 0C59.6744 0 59.6221 0 59.5698 0C59.5175 0 59.4651 0 59.4127 0C59.3603 0 59.3078 0 59.2553 0C59.2029 0 59.1503 0 59.0978 0C59.0453 0 58.9927 0 58.9401 0C58.8874 0 58.8348 0 58.7821 0C58.7294 0 58.6767 0 58.624 0C58.5712 0 58.5185 0 58.4656 0C58.4128 0 58.36 0 58.3071 0C58.2543 0 58.2013 0 58.1484 0C58.0955 0 58.0425 0 57.9895 0C57.9365 0 57.8835 0 57.8304 0C57.7774 0 57.7243 0 57.6712 0C57.618 0 57.5649 0 57.5117 0C57.4585 0 57.4053 0 57.3521 0C57.2989 0 57.2456 0 57.1923 0C57.139 0 57.0857 0 57.0323 0C56.979 0 56.9256 0 56.8722 0C56.8188 0 56.7654 0 56.7119 0C56.6585 0 56.605 0 56.5515 0C56.4979 0 56.4444 0 56.3908 0C56.3373 0 56.2837 0 56.23 0C56.1764 0 56.1228 0 56.0691 0C56.0154 0 55.9617 0 55.908 0C55.8543 0 55.8006 0 55.7468 0C55.693 0 55.6392 0 55.5854 0C55.5316 0 55.4777 0 55.4239 0C55.37 0 55.3161 0 55.2622 0C55.2083 0 55.1543 0 55.1004 0C55.0464 0 54.9924 0 54.9384 0C54.8844 0 54.8304 0 54.7763 0C54.7223 0 54.6682 0 54.6141 0C54.56 0 54.5059 0 54.4518 0C54.3976 0 54.3435 0 54.2893 0C54.2351 0 54.1809 0 54.1267 0C54.0725 0 54.0182 0 53.964 0C53.9097 0 53.8554 0 53.8011 0C53.7468 0 53.6925 0 53.6382 0C53.5838 0 53.5295 0 53.4751 0C53.4207 0 53.3663 0 53.3119 0C53.2575 0 53.2031 0 53.1486 0C53.0942 0 53.0397 0 52.9852 0C52.9307 0 52.8762 0 52.8217 0C52.7672 0 52.7127 0 52.6581 0C52.6036 0 52.549 0 52.4944 0C52.4398 0 52.3852 0 52.3306 0C52.276 0 52.2214 0 52.1667 0C52.1121 0 52.0574 0 52.0027 0C51.948 0 51.8934 0 51.8386 0C51.7839 0 51.7292 0 51.6745 0C51.6198 0 51.565 0 51.5103 0C51.4555 0 51.4007 0 51.3459 0C51.2911 0 51.2363 0 51.1815 0C51.1267 0 51.0719 0 51.0171 0C50.9622 0 50.9074 0 50.8525 0C50.7976 0 50.7428 0 50.6879 0C50.633 0 50.5781 0 50.5232 0C50.4683 0 50.4134 0 50.3584 0C50.3035 0 50.2486 0 50.1936 0C50.1387 0 50.0837 0 50.0288 0C49.9738 0 49.9188 0 49.8638 0C49.8088 0 49.7538 0 49.6988 0C49.6438 0 49.5888 0 49.5338 0C49.4788 0 49.4237 0 49.3687 0C49.3137 0 49.2586 0 49.2036 0C49.1485 0 49.0935 0 49.0384 0C48.9833 0 48.9283 0 48.8732 0C48.8181 0 48.763 0 48.7079 0C48.6528 0 48.5977 0 48.5426 0C48.4875 0 48.4324 0 48.3773 0C48.3222 0 48.2671 0 48.2119 0C48.1568 0 48.1017 0 48.0465 0C47.9914 0 47.9363 0 47.8811 0C47.826 0 47.7708 0 47.7157 0C47.6605 0 47.6054 0 47.5502 0C47.4951 0 47.4399 0 47.3847 0C47.3296 0 47.2744 0 47.2192 0C47.1641 0 47.1089 0 47.0537 0C46.9985 0 46.9434 0 46.8882 0C46.833 0 46.7778 0 46.7227 0C46.6675 0 46.6123 0 46.5571 0C46.502 0 46.4468 0 46.3916 0C46.3364 0 46.2812 0 46.2261 0C46.1709 0 46.1157 0 46.0605 0C46.0053 0 45.9502 0 45.895 0C45.8398 0 45.7846 0 45.7295 0C45.6743 0 45.6191 0 45.5639 0C45.5088 0 45.4536 0 45.3984 0C45.3433 0 45.2881 0 45.233 0C45.1778 0 45.1226 0 45.0675 0C45.0123 0 44.9572 0 44.902 0C44.8469 0 44.7917 0 44.7366 0C44.6815 0 44.6263 0 44.5712 0C44.5161 0 44.4609 0 44.4058 0C44.3507 0 44.2956 0 44.2405 0C44.1854 0 44.1303 0 44.0752 0C44.0201 0 43.965 0 43.9099 0C43.8548 0 43.7997 0 43.7447 0C43.6896 0 43.6345 0 43.5795 0C43.5244 0 43.4694 0 43.4143 0C43.3593 0 43.3042 0 43.2492 0C43.1942 0 43.1392 0 43.0841 0C43.0291 0 42.9741 0 42.9191 0C42.8641 0 42.8092 0 42.7542 0C42.6992 0 42.6442 0 42.5893 0C42.5343 0 42.4794 0 42.4245 0C42.3695 0 42.3146 0 42.2597 0C42.2048 0 42.1499 0 42.095 0C42.0401 0 41.9852 0 41.9303 0C41.8755 0 41.8206 0 41.7657 0C41.7109 0 41.6561 0 41.6012 0C41.5464 0 41.4916 0 41.4368 0C41.382 0 41.3272 0 41.2725 0C41.2177 0 41.1629 0 41.1082 0C41.0534 0 40.9987 0 40.944 0C40.8893 0 40.8346 0 40.7799 0C40.7252 0 40.6705 0 40.6159 0C40.5612 0 40.5066 0 40.4519 0C40.3973 0 40.3427 0 40.2881 0C40.2335 0 40.1789 0 40.1244 0C40.0698 0 40.0152 0 39.9607 0C39.9062 0 39.8517 0 39.7972 0C39.7427 0 39.6882 0 39.6337 0C39.5793 0 39.5248 0 39.4704 0C39.416 0 39.3616 0 39.3072 0C39.2528 0 39.1984 0 39.1441 0C39.0897 0 39.0354 0 38.981 0C38.9267 0 38.8724 0 38.8182 0C38.7639 0 38.7096 0 38.6554 0C38.6012 0 38.5469 0 38.4927 0C38.4385 0 38.3844 0 38.3302 0C38.2761 0 38.2219 0 38.1678 0C38.1137 0 38.0596 0 38.0056 0C37.9515 0 37.8974 0 37.8434 0C37.7894 0 37.7354 0 37.6814 0C37.6274 0 37.5735 0 37.5195 0C37.4656 0 37.4117 0 37.3578 0C37.3039 0 37.2501 0 37.1962 0C37.1424 0 37.0886 0 37.0348 0C36.981 0 36.9272 0 36.8735 0C36.8197 0 36.766 0 36.7123 0C36.6586 0 36.605 0 36.5513 0C36.4977 0 36.4441 0 36.3905 0C36.3369 0 36.2833 0 36.2298 0C36.1763 0 36.1228 0 36.0693 0C36.0158 0 35.9624 0 35.9089 0C35.8555 0 35.8021 0 35.7487 0C35.6954 0 35.642 0 35.5887 0C35.5354 0 35.4821 0 35.4288 0C35.3756 0 35.3223 0 35.2691 0C35.216 0 35.1628 0 35.1096 0C35.0565 0 35.0034 0 34.9503 0C34.8972 0 34.8442 0 34.7912 0C34.7381 0 34.6851 0 34.6322 0C34.5792 0 34.5263 0 34.4734 0C34.4205 0 34.3676 0 34.3148 0C34.262 0 34.2092 0 34.1564 0C34.1036 0 34.0509 0 33.9982 0C33.9455 0 33.8928 0 33.8402 0C33.7875 0 33.7349 0 33.6823 0C33.6298 0 33.5772 0 33.5247 0C33.4722 0 33.4197 0 33.3673 0C33.3149 0 33.2625 0 33.2101 0C33.1577 0 33.1054 0 33.0531 0C33.0008 0 32.9485 0 32.8963 0C32.8441 0 32.7919 0 32.7397 0C32.6876 0 32.6355 0 32.5834 0C32.5313 0 32.4793 0 32.4272 0C32.3752 0 32.3233 0 32.2713 0C32.2194 0 32.1675 0 32.1156 0C32.0638 0 32.012 0 31.9602 0C31.9084 0 31.8566 0 31.8049 0C31.7532 0 31.7016 0 31.6499 0C31.5983 0 31.5467 0 31.4952 0C31.4436 0 31.3921 0 31.3406 0C31.2892 0 31.2377 0 31.1863 0C31.1349 0 31.0836 0 31.0323 0C30.981 0 30.9297 0 30.8785 0C30.8273 0 30.7761 0 30.7249 0C30.6738 0 30.6227 0 30.5716 0C30.5206 0 30.4695 0 30.4186 0C30.3676 0 30.3167 0 30.2658 0C30.2149 0 30.164 0 30.1132 0C30.0624 0 30.0117 0 29.9609 0C29.9102 0 29.8596 0 29.8089 0C29.7583 0 29.7077 0 29.6572 0C29.6066 0 29.5561 0 29.5057 0C29.4552 0 29.4048 0 29.3545 0C29.3041 0 29.2538 0 29.2035 0C29.1533 0 29.103 0 29.0529 0C29.0027 0 28.9526 0 28.9025 0C28.8524 0 28.8024 0 28.7524 0C28.7024 0 28.6524 0 28.6026 0C28.5527 0 28.5028 0 28.453 0C28.4032 0 28.3535 0 28.3038 0C28.2541 0 28.2044 0 28.1548 0C28.1052 0 28.0557 0 28.0062 0C27.9567 0 27.9072 0 27.8578 0C27.8084 0 27.759 0 27.7097 0C27.6604 0 27.6112 0 27.562 0C27.5128 0 27.4636 0 27.4145 0C27.3654 0 27.3164 0 27.2674 0C27.2184 0 27.1694 0 27.1205 0C27.0716 0 27.0228 0 26.974 0C26.9252 0 26.8765 0 26.8278 0C26.7791 0 26.7305 0 26.6819 0C26.6333 0 26.5848 0 26.5363 0C26.4878 0 26.4394 0 26.391 0C26.3427 0 26.2944 0 26.2461 0C26.1979 0 26.1497 0 26.1015 0C26.0534 0 26.0053 0 25.9572 0C25.9092 0 25.8612 0 25.8133 0C25.7654 0 25.7175 0 25.6697 0C25.6219 0 25.5741 0 25.5264 0C25.4787 0 25.4311 0 25.3835 0C25.3359 0 25.2884 0 25.2409 0C25.1935 0 25.146 0 25.0987 0C25.0513 0 25.004 0 24.9568 0C24.9096 0 24.8624 0 24.8153 0C24.7681 0 24.7211 0 24.6741 0C24.6271 0 24.5801 0 24.5333 0C24.4864 0 24.4395 0 24.3928 0C24.346 0 24.2993 0 24.2527 0C24.206 0 24.1595 0 24.1129 0C24.0664 0 24.0199 0 23.9736 0C23.9272 0 23.8808 0 23.8345 0C23.7883 0 23.7421 0 23.6959 0C23.6498 0 23.6037 0 23.5576 0C23.5116 0 23.4657 0 23.4198 0C23.3739 0 23.328 0 23.2822 0C23.2365 0 23.1908 0 23.1451 0C23.0995 0 23.0539 0 23.0084 0C22.9629 0 22.9174 0 22.872 0C22.8266 0 22.7813 0 22.7361 0C22.6908 0 22.6456 0 22.6005 0C22.5554 0 22.5103 0 22.4653 0C22.4203 0 22.3754 0 22.3305 0C22.2857 0 22.2409 0 22.1962 0C22.1514 0 22.1068 0 22.0622 0C22.0176 0 21.9731 0 21.9286 0C21.8842 0 21.8398 0 21.7954 0C21.7511 0 21.7069 0 21.6627 0C21.6185 0 21.5744 0 21.5303 0C21.4863 0 21.4423 0 21.3984 0C21.3545 0 21.3107 0 21.2669 0C21.2231 0 21.1795 0 21.1358 0C21.0922 0 21.0486 0 21.0052 0C20.9617 0 20.9183 0 20.8749 0C20.8316 0 20.7883 0 20.7451 0C20.7019 0 20.6588 0 20.6157 0C20.5727 0 20.5297 0 20.4868 0C20.4439 0 20.401 0 20.3583 0C20.3155 0 20.2728 0 20.2302 0C20.1876 0 20.1451 0 20.1026 0C20.0601 0 20.0177 0 19.9754 0C19.9331 0 19.8908 0 19.8487 0C19.8065 0 19.7644 0 19.7224 0C19.6804 0 19.6384 0 19.5965 0C19.5547 0 19.5129 0 19.4712 0C19.4294 0 19.3878 0 19.3462 0C19.3047 0 19.2632 0 19.2218 0C19.1803 0 19.139 0 19.0978 0C19.0565 0 19.0153 0 18.9742 0C18.9331 0 18.8921 0 18.8511 0C18.8102 0 18.7693 0 18.7285 0C18.6877 0 18.647 0 18.6064 0C18.5658 0 18.5252 0 18.4847 0C18.4443 0 18.4039 0 18.3636 0C18.3233 0 18.283 0 18.2429 0C18.2027 0 18.1626 0 18.1227 0C18.0827 0 18.0428 0 18.0029 0C17.9631 0 17.9233 0 17.8837 0C17.844 0 17.8044 0 17.7649 0C17.7254 0 17.686 0 17.6467 0C17.6073 0 17.5681 0 17.5289 0C17.4897 0 17.4506 0 17.4116 0C17.3726 0 17.3337 0 17.2949 0C17.256 0 17.2173 0 17.1786 0C17.1399 0 17.1014 0 17.0629 0C17.0244 0 16.9859 0 16.9476 0C16.9093 0 16.871 0 16.8329 0C16.7947 0 16.7566 0 16.7186 0C16.6807 0 16.6428 0 16.6049 0C16.5671 0 16.5294 0 16.4918 0C16.4541 0 16.4166 0 16.3791 0C16.3416 0 16.3042 0 16.2669 0C16.2297 0 16.1924 0 16.1553 0C16.1182 0 16.0812 0 16.0442 0C16.0073 0 15.9705 0 15.9337 0C15.8969 0 15.8603 0 15.8237 0C15.7871 0 15.7506 0 15.7142 0C15.6778 0 15.6415 0 15.6052 0C15.569 0 15.5329 0 15.4968 0C15.4608 0 15.4248 0 15.389 0C15.3531 0 15.3173 0 15.2817 0C15.246 0 15.2104 0 15.1749 0C15.1394 0 15.104 0 15.0687 0C15.0334 0 14.9982 0 14.963 0C14.9279 0 14.8929 0 14.858 0C14.823 0 14.7882 0 14.7534 0C14.7187 0 14.684 0 14.6494 0C14.6149 0 14.5804 0 14.546 0C14.5117 0 14.4774 0 14.4432 0C14.409 0 14.3749 0 14.3409 0C14.3069 0 14.273 0 14.2392 0C14.2054 0 14.1717 0 14.1381 0C14.1045 0 14.071 0 14.0376 0C14.0042 0 13.9708 0 13.9376 0C13.9044 0 13.8713 0 13.8382 0C13.8052 0 13.7723 0 13.7394 0C13.7066 0 13.6739 0 13.6412 0C13.6086 0 13.5761 0 13.5436 0C13.5112 0 13.4789 0 13.4466 0C13.4144 0 13.3822 0 13.3502 0C13.3182 0 13.2862 0 13.2544 0C13.2225 0 13.1908 0 13.1591 0C13.1275 0 13.096 0 13.0645 0C13.0331 0 13.0018 0 12.9705 0C12.9393 0 12.9082 0 12.8771 0C12.8461 0 12.8152 0 12.7843 0C12.7535 0 12.7228 0 12.6922 0C12.6615 0 12.631 0 12.6006 0C12.5702 0 12.5399 0 12.5097 0C12.4795 0 12.4493 0 12.4193 0C12.3893 0 12.3594 0 12.3297 0C12.2999 0 12.2702 0 12.2406 0C12.211 0 12.1815 0 12.1522 0C12.1228 0 12.0935 0 12.0644 0C12.0352 0 12.0061 0 11.9772 0C11.9482 0 11.9194 0 11.8907 0C11.8619 0 11.8333 0 11.8048 0C11.7762 0 11.7478 0 11.7195 0C11.6912 0 11.663 0 11.6349 0C11.6068 0 11.5788 0 11.551 0C11.5231 0 11.4953 0 11.4677 0C11.44 0 11.4125 0 11.385 0C11.3576 0 11.3303 0 11.303 0C11.2758 0 11.2487 0 11.2217 0C11.1947 0 11.1678 0 11.141 0C11.1142 0 11.0876 0 11.061 0C11.0345 0 11.008 0 10.9817 0C10.9553 0 10.9291 0 10.903 0C10.8769 0 10.8509 0 10.825 0C10.7991 0 10.7733 0 10.7477 0C10.722 0 10.6964 0 10.671 0C10.6456 0 10.6202 0 10.595 0C10.5698 0 10.5447 0 10.5197 0C10.4948 0 10.4699 0 10.4451 0C10.4204 0 10.3957 0 10.3712 0C10.3467 0 10.3223 0 10.298 0C10.2737 0 10.2495 0 10.2254 0C10.2014 0 10.1774 0 10.1536 0C10.1298 0 10.106 0 10.0824 0C10.0588 0 10.0354 0 10.012 0C9.98863 0 9.96538 0 9.94224 0C9.91911 0 9.8961 0 9.8732 0C9.85031 0 9.82753 0 9.80487 0C9.78221 0 9.75967 0 9.73724 0C9.71482 0 9.69252 0 9.67033 0C9.64815 0 9.62608 0 9.60413 0C9.58219 0 9.56036 0 9.53866 0C9.51695 0 9.49536 0 9.4739 0C9.45243 0 9.43108 0 9.40986 0C9.38864 0 9.36753 0 9.34655 0C9.32557 0 9.30471 0 9.28397 0C9.26323 0 9.24261 0 9.22212 0C9.20162 0 9.18125 0 9.161 0C9.14075 0 9.12062 0 9.10062 0C9.08061 0 9.06073 0 9.04097 0C9.02121 0 9.00158 0 8.98207 0C8.96256 0 8.94317 0 8.92391 0C8.90465 0 8.88551 0 8.8665 0C8.84748 0 8.8286 0 8.80983 0C8.79107 0 8.77243 0 8.75392 0C8.73541 0 8.71702 0 8.69876 0C8.6805 0 8.66237 0 8.64436 0C8.62635 0 8.60847 0 8.59072 0C8.57296 0 8.55533 0 8.53783 0C8.52033 0 8.50296 0 8.48572 0C8.46847 0 8.45135 0 8.43437 0C8.41738 0 8.40052 0 8.38378 0C8.36705 0 8.35045 0 8.33398 0C8.3175 0 8.30116 0 8.28494 0C8.26873 0 8.25264 0 8.23668 0C8.22073 0 8.2049 0 8.18921 0C8.17351 0 8.15795 0 8.14251 0C8.12708 0 8.11177 0 8.0966 0C8.08143 0 8.06639 0 8.05148 0C8.03657 0 8.02179 0 8.00715 0C7.9925 0 7.97799 0 7.96361 0C7.94923 0 7.93498 0 7.92086 0C7.90675 0 7.89277 0 7.87892 0C7.86507 0 7.85135 0 7.83777 0C7.82419 0 7.81074 0 7.79743 0C7.78411 0 7.77093 0 7.75789 0C7.74484 0 7.73194 0 7.71916 0C7.70639 0 7.69375 0 7.68124 0C7.66874 0 7.65637 0 7.64414 0C7.6319 0 7.61981 0 7.60785 0C7.59589 0 7.58406 0 7.57238 0C7.56069 0 7.54914 0 7.53773 0C7.52632 0 7.51504 0 7.5039 0C7.49276 0 7.48176 0 7.4709 0V2Z" fill="white" fill-opacity="0.1"/>
</svg>
